<?xml version="1.0" encoding="utf-8"?>
<!-- Generator: Adobe Illustrator 28.2.0, SVG Export Plug-In . SVG Version: 6.00 Build 0)  -->
<svg version="1.1" id="Ebene_1" xmlns="http://www.w3.org/2000/svg" xmlns:xlink="http://www.w3.org/1999/xlink" x="0px" y="0px"
	 viewBox="0 0 2600.42 651.97" style="enable-background:new 0 0 2600.42 651.97;" xml:space="preserve">
<style type="text/css">
	.st0{fill:#FFFFFF;}
	.st1{fill:#FFFFFF;stroke:#FFFFFF;stroke-width:3;stroke-miterlimit:10;}
	.st2{fill:#FFFFFF;stroke:#FFFFFF;stroke-width:4;stroke-miterlimit:10;}
	.st3{fill:#FFFFFF;stroke:#FFFFFF;stroke-miterlimit:10;}
	.st4{fill:#1C0E1D;stroke:#FFFFFF;stroke-miterlimit:10;}
</style>
<g>
	<path class="st0" d="M442.17,273.35c-7.74-25.68-34.83-40.21-60.5-32.47c-25.67,7.74-40.21,34.82-32.47,60.49
		c7.74,25.67,34.83,40.21,60.5,32.47C435.37,326.1,449.91,299.02,442.17,273.35z M412.36,285.36c-9.51,2.87-19.55-2.52-22.42-12.04
		c-2.87-9.51,2.52-19.55,12.03-22.42c9.52-2.87,19.56,2.52,22.43,12.04C427.27,272.45,421.88,282.49,412.36,285.36z"/>
	<path class="st0" d="M198.1,69.65c-0.09,0.38-0.18,0.75-0.26,1.13c0.09-0.42,0.19-0.84,0.3-1.26c0.05-0.2,0.1-0.39,0.14-0.59
		C198.21,69.17,198.15,69.41,198.1,69.65z"/>
	<path class="st0" d="M198.14,69.52c-0.11,0.42-0.21,0.84-0.3,1.26c0.08-0.38,0.17-0.75,0.26-1.13
		C198.11,69.61,198.12,69.56,198.14,69.52z"/>
	<path class="st0" d="M202.03,59.25c-0.22,0.41-0.43,0.82-0.63,1.24c-0.18,0.36-0.35,0.72-0.52,1.09
		C201.23,60.79,201.62,60.01,202.03,59.25z"/>
	<path class="st0" d="M202.32,58.72c-0.1,0.17-0.2,0.35-0.29,0.53c0.03-0.06,0.06-0.13,0.1-0.2
		C202.19,58.94,202.26,58.83,202.32,58.72z"/>
	<path class="st0" d="M223.4,39.45c-0.53,0.22-1.05,0.46-1.57,0.71c0.13-0.07,0.28-0.12,0.42-0.19
		C222.63,39.79,223.01,39.62,223.4,39.45z"/>
	<path class="st0" d="M251.34,36.99c-0.77-0.19-1.56-0.36-2.35-0.5c0.4,0.07,0.79,0.15,1.19,0.24
		C250.57,36.81,250.95,36.9,251.34,36.99z"/>
	<g>
		<path class="st1" d="M270.14,161.54l2.66,8.84l-9.83,2.96l-2.66-8.84l-3.7-12.29l9.55-6.18l-13.11-5.61l-5.09-16.87v-0.01
			c0.29-0.04,0.59-0.09,0.89-0.14c0.05-0.01,0.1-0.02,0.15-0.03c0.53-0.1,1.06-0.21,1.59-0.32c0.54-0.12,1.07-0.25,1.6-0.39
			c0.49-0.12,0.97-0.26,1.45-0.41c0.05-0.01,0.09-0.03,0.14-0.04c0.05-0.02,0.1-0.03,0.16-0.05c0.2-0.07,0.4-0.13,0.6-0.19
			c0.16-0.05,0.32-0.1,0.48-0.16c0.04-0.01,0.08-0.03,0.12-0.04c0.12-0.04,0.24-0.08,0.36-0.12c0.46-0.15,0.91-0.32,1.35-0.49
			c0.33-0.12,0.66-0.25,0.99-0.39l0.01,0.01l3.64,12.09l26.43,11.31l-19.26,12.46L270.14,161.54z"/>
		<path class="st2" d="M446.88,453.26c-0.9,0.76-1.74,1.6-2.51,2.51c-1.43,1.68-2.62,3.61-3.49,5.71l-14.07-6.16
			c5.82-3.3,11.14-6.67,16.01-10.06L446.88,453.26z"/>
		<path class="st2" d="M509.12,371.26c-1.45,12.22-6,28.82-18.03,46.47c-0.9,1.33-1.85,2.66-2.84,4l-5.04-8.99
			c-0.89-1.59-1.93-3.05-3.1-4.37c3.87-5.86,6.77-11.52,8.96-16.83c3.77-9.18,5.39-17.35,6.01-23.76c0.7-7.41,0.06-12.47-0.16-13.89
			v-0.02l-0.01-0.05l-0.01-0.04l-46.98-155.82l-99.6-35.18l2.99-5.1l-7.92-4.64l0.7-1.19l-1.81,0.55l-3.34-1.96l-2.11,3.6
			l-134.65,40.6l-3.75-1.84l-1.71,3.48l-2.48,0.75l1.71,0.84l-3.83,7.8l5.31,2.6l-63.56,84.38l46.7,154.89l0.17,0.65v0.01l0.01,0.02
			l0.04,0.09c0.02,0.03,0.03,0.07,0.05,0.11c0,0.01,0.01,0.01,0.01,0.01c0.06,0.13,0.14,0.31,0.24,0.54
			c0.3,0.61,0.78,1.56,1.48,2.78c1.4,2.43,3.66,5.91,7.02,9.86c6.72,7.89,17.75,17.64,35.2,24.77c11.64,4.75,26.17,8.34,44.3,9.32
			c24.03,1.3,54.42-2.01,92.53-13.44h0.01l0.83,0.41l17.79,8.7c-4.46,1.51-9.07,2.98-13.83,4.42
			c-44.66,13.47-79.9,16.42-107.62,13.46c-27.71-2.95-47.84-11.88-61.92-21.82c-9.39-6.62-16.09-13.66-20.69-19.59
			c-6.14-7.9-8.56-13.81-8.75-14.3l-0.12-0.29l-4.95-16.43l1.91-0.58l-33.78-112.1l-1.93,0.58l-10.52-34.89l80.34-106.66
			l61.92-18.67l2.66,8.84l9.83-2.96l-2.66-8.84l63.51-19.15l125.9,44.48l10.48,34.78l-1.95,0.56l33.88,112.22l1.91-0.57l4.95,16.43
			l0.06,0.3C509,351.17,510.58,359.03,509.12,371.26z"/>
		<path class="st0" d="M509.43,459.54l-9.56-2.39l-9.54-2.38h-0.01l-11.9-21.24l-7.4-13.21l-0.32-0.57
			c-1.29-2.31-3.25-3.94-5.54-4.86c-2.28-0.91-4.84-1.05-7.26-0.32c-0.63,0.19-1.26,0.44-1.87,0.75c-2.43,1.25-4.16,3.22-5.14,5.55
			c-0.98,2.33-1.15,4.96-0.4,7.45c0.18,0.62,0.43,1.23,0.73,1.83l3.21,6.3l5.91,11.64c-1.94,0.05-3.85,0.36-5.66,0.91
			c-0.55,0.17-1.09,0.36-1.63,0.57c-2.26,0.88-4.34,2.13-6.17,3.69l-4.06-8l-4.38-8.61c-0.69-1.37-1.25-2.77-1.68-4.19
			c-1.74-5.77-1.32-11.83,0.91-17.13c2.22-5.31,6.3-9.94,11.82-12.76c1.38-0.72,2.82-1.29,4.27-1.73c5.61-1.69,11.49-1.34,16.7,0.73
			c3.64,1.44,6.97,3.75,9.65,6.8c1.17,1.32,2.21,2.78,3.1,4.37l5.04,8.99L509.43,459.54z"/>
		<path class="st0" d="M442.93,462.38c-0.97,0.61-1.96,1.22-2.96,1.83c-0.29,1.07-0.49,2.18-0.61,3.32l-0.11,1.05l-0.78,7.49
			l-10.95-4.79l-17.05-7.47l-35.67-15.63c-1.87-0.83-3.84-1.09-5.7-0.88c-0.66,0.08-1.31,0.21-1.94,0.4
			c-1.43,0.43-2.78,1.15-3.93,2.12c-1.15,0.97-2.11,2.18-2.81,3.63l-0.01,0.02c-1.27,2.62-1.41,5.42-0.64,8
			c0.43,1.42,1.14,2.76,2.1,3.9c0.96,1.15,2.15,2.11,3.59,2.81l15.72,7.69h0.01l17.65,8.63l36.88,18.02l-0.79,7.6l-0.79,7.59
			l-53.89-26.34l-17.79-8.7l-0.83-0.41h-0.01l-2.46-1.2c-3.27-1.6-6.08-3.84-8.29-6.49c-2.22-2.65-3.85-5.71-4.83-8.96
			c-1.78-5.86-1.42-12.45,1.47-18.39c1.59-3.31,3.84-6.14,6.5-8.37c2.66-2.24,5.73-3.89,9.01-4.88c1.45-0.43,2.94-0.74,4.46-0.91
			c4.33-0.5,8.86,0.13,13.11,2h-0.02l46.24,20.26l14.07,6.16L442.93,462.38z"/>
		<path d="M202.32,58.72c-0.1,0.17-0.2,0.35-0.29,0.53c0.03-0.06,0.06-0.13,0.1-0.2C202.19,58.94,202.26,58.83,202.32,58.72z"/>
		<path d="M208.21,50.39c-0.71,0.79-1.4,1.61-2.05,2.45C206.8,52,207.49,51.18,208.21,50.39z"/>
		<path d="M281.26,61.67h-0.01c-0.06-0.13-0.11-0.26-0.17-0.39C281.15,61.41,281.21,61.54,281.26,61.67z"/>
		<path d="M248.85,123.4c-0.29,0.05-0.59,0.1-0.89,0.15c-0.18,0.03-0.37,0.06-0.56,0.08c0.18-0.02,0.37-0.05,0.56-0.09
			C248.25,123.5,248.55,123.45,248.85,123.4z"/>
		<path d="M259.06,120.25c-0.4,0.19-0.8,0.36-1.21,0.53c-0.33,0.14-0.66,0.27-1,0.38c0.33-0.12,0.66-0.25,0.99-0.39
			C258.25,120.6,258.66,120.43,259.06,120.25z"/>
		<path d="M262.04,118.78c-0.97,0.53-1.97,1.02-2.98,1.47C260.08,119.79,261.07,119.3,262.04,118.78z"/>
		<path d="M198.15,90.43l-0.02,0.01c-0.33-1.36-0.6-2.75-0.8-4.15C197.54,87.67,197.81,89.05,198.15,90.43z"/>
		<path d="M203.83,103.74c-0.26-0.4-0.51-0.8-0.75-1.21h0.02C203.34,102.94,203.59,103.34,203.83,103.74z"/>
		<path d="M282.68,94.66c-0.98,2.81-2.25,5.48-3.77,7.99c0.36-0.61,0.71-1.22,1.04-1.84C281.01,98.83,281.92,96.78,282.68,94.66z"/>
		<path d="M283.84,90.83c-0.32,1.3-0.71,2.58-1.16,3.83C283.12,93.4,283.51,92.12,283.84,90.83z"/>
		<path d="M284.89,74.65c0-0.03-0.01-0.06-0.02-0.1c-0.02-0.2-0.04-0.41-0.07-0.62c0.02,0.21,0.05,0.42,0.08,0.62
			C284.88,74.59,284.88,74.62,284.89,74.65z"/>
		<path class="st0" d="M222.45,119.98c-0.62-0.28-1.24-0.59-1.84-0.91c0.15,0.07,0.3,0.14,0.45,0.22
			C221.52,119.52,221.98,119.76,222.45,119.98z"/>
		<path class="st3" d="M294.3,335.43c-7.74-25.67-34.82-40.21-60.5-32.47c-25.67,7.74-40.2,34.83-32.46,60.5
			s34.82,40.21,60.49,32.47C287.5,388.19,302.04,361.1,294.3,335.43z M264.5,347.44c-9.52,2.87-19.56-2.52-22.43-12.03
			c-2.87-9.52,2.52-19.55,12.04-22.42c9.51-2.87,19.55,2.52,22.42,12.03C279.4,334.54,274.01,344.57,264.5,347.44z"/>
		<polygon class="st3" points="305.27,434.43 358.79,402.97 396.78,408.4 409.71,395.22 402.38,388.03 393.09,397.5 356.69,392.3 
			300.07,425.58 305.27,434.43 		"/>
		<polygon class="st2" points="164.28,436.24 162.37,436.82 152.25,439.86 117.39,422.58 108.18,392.01 98.96,361.44 118.45,327.77 
			128.57,324.72 130.5,324.14 		"/>
		<polygon class="st2" points="533.48,297.13 513.99,330.8 503.87,333.85 503.87,333.86 501.96,334.43 468.08,222.21 470.03,221.65 
			480.19,218.71 515.05,235.99 524.26,266.56 		"/>
		<polygon class="st3" points="351.31,157.68 348.32,162.78 319.8,211.49 283.96,222.3 248.12,233.1 197.43,208.27 192.12,205.67 
			195.95,197.87 196.72,196.28 198.43,192.8 202.18,194.64 206.22,196.61 249.38,217.75 279.82,208.57 310.27,199.39 334.56,157.92 
			336.83,154.04 338.94,150.44 342.28,152.4 343.39,153.04 		"/>
		<polygon class="st3" points="344.09,151.85 343.39,153.04 339.51,159.67 314,203.24 280.86,213.23 247.72,223.22 202.76,201.2 
			195.95,197.87 194.24,197.03 196.72,196.28 202.18,194.64 336.83,154.04 342.28,152.4 		"/>
	</g>
	<path class="st0" d="M586.88,514.67c-2.1-6.96-6.57-12.78-12.36-16.63c-1.73-1.15-3.58-2.13-5.54-2.92l0.08-0.54
		c0.47-3.22,0.2-6.44-0.69-9.4c-1.07-3.56-3.04-6.77-5.69-9.34c-2.65-2.57-6.02-4.5-9.82-5.44l-0.91-0.23
		c27.28-42.91,41.69-92.53,41.69-143.66c0-71.63-27.9-138.98-78.55-189.63c-50.65-50.65-118-78.55-189.63-78.55
		c-14.19,0-28.45,1.12-42.37,3.33l-1.83,0.01h-0.01c-0.06-0.13-0.11-0.26-0.17-0.39l-0.18-0.39c-0.18-0.36-0.36-0.71-0.53-1.07
		c-0.33-0.63-0.66-1.25-1.01-1.85c-0.01-0.01-0.01-0.02-0.01-0.03c-0.36-0.62-0.73-1.23-1.1-1.82c-0.82-1.28-1.7-2.5-2.63-3.66
		c-0.19-0.25-0.39-0.49-0.59-0.73c-0.42-0.51-0.86-1.01-1.3-1.5c-0.05-0.05-0.09-0.1-0.14-0.15c-0.36-0.39-0.72-0.77-1.1-1.15
		c-0.37-0.39-0.75-0.75-1.13-1.11c-0.25-0.24-0.51-0.48-0.78-0.72c-0.53-0.47-1.07-0.94-1.62-1.39c-0.27-0.22-0.55-0.44-0.83-0.66
		c-0.36-0.28-0.72-0.55-1.09-0.81c-0.29-0.21-0.57-0.41-0.86-0.61c-0.27-0.18-0.54-0.37-0.82-0.55c-0.21-0.14-0.43-0.29-0.65-0.42
		c-0.13-0.09-0.26-0.17-0.39-0.24c-0.09-0.06-0.19-0.12-0.28-0.18c-0.06-0.04-0.13-0.08-0.19-0.11c-0.22-0.13-0.44-0.27-0.66-0.39
		c-0.01-0.01-0.02-0.02-0.03-0.02c-0.3-0.17-0.6-0.35-0.9-0.51c-0.18-0.1-0.36-0.2-0.55-0.3c-0.36-0.19-0.72-0.38-1.09-0.56
		c-0.47-0.23-0.94-0.45-1.42-0.67c-0.08-0.04-0.16-0.07-0.24-0.11c-0.33-0.14-0.65-0.28-0.98-0.42c-0.43-0.18-0.87-0.35-1.31-0.52
		c-0.14-0.05-0.28-0.11-0.42-0.16c-0.56-0.2-1.13-0.4-1.7-0.58c-0.14-0.05-0.29-0.09-0.43-0.14c-0.46-0.14-0.92-0.27-1.38-0.4
		c-0.39-0.1-0.79-0.21-1.19-0.31c-0.07-0.02-0.14-0.03-0.21-0.05c-0.39-0.09-0.77-0.18-1.16-0.26c-0.4-0.09-0.79-0.17-1.19-0.24
		c-0.41-0.08-0.82-0.15-1.23-0.21c-0.41-0.07-0.81-0.13-1.23-0.18c-0.35-0.04-0.71-0.08-1.07-0.12c-0.21-0.02-0.42-0.04-0.63-0.05
		c-0.33-0.04-0.67-0.06-1-0.08c-0.47-0.03-0.95-0.05-1.43-0.07c-0.45-0.01-0.9-0.02-1.36-0.02c-0.53,0-1.06,0.01-1.59,0.03
		c-0.52,0.02-1.06,0.05-1.59,0.09c-0.53,0.03-1.06,0.08-1.59,0.14c-0.38,0.04-0.75,0.09-1.13,0.14s-0.75,0.11-1.13,0.17
		c-0.44,0.07-0.88,0.15-1.32,0.24c-0.25,0.05-0.5,0.1-0.75,0.15c-0.01,0.01-0.02,0.01-0.03,0.01c-0.31,0.06-0.61,0.13-0.91,0.2
		c-0.04,0.01-0.07,0.02-0.1,0.02c-0.24,0.06-0.49,0.12-0.73,0.18c-0.02,0.01-0.05,0.01-0.07,0.02c-0.03,0.01-0.07,0.02-0.1,0.03
		c-0.2,0.05-0.4,0.1-0.6,0.15c-0.04,0.01-0.08,0.02-0.12,0.03c-0.01,0.01-0.03,0.01-0.04,0.02c-0.02,0-0.03,0.01-0.05,0.01
		c-0.75,0.21-1.5,0.44-2.24,0.69c-0.03,0.01-0.06,0.02-0.1,0.04c-0.02,0-0.03,0.01-0.05,0.01c-0.02,0.01-0.05,0.01-0.07,0.02
		c-0.02,0.01-0.03,0.01-0.05,0.02c-0.11,0.04-0.22,0.07-0.33,0.12c-0.04,0.01-0.07,0.02-0.1,0.04c-0.35,0.11-0.69,0.24-1.02,0.37
		c-0.03,0.01-0.05,0.01-0.07,0.03c-0.2,0.07-0.4,0.15-0.59,0.23c-0.11,0.04-0.22,0.08-0.32,0.13c-0.02,0-0.03,0.01-0.04,0.02
		c-0.21,0.08-0.41,0.16-0.61,0.25c-0.07,0.03-0.13,0.06-0.2,0.09c-0.39,0.17-0.77,0.34-1.15,0.52c-0.14,0.07-0.29,0.12-0.42,0.19
		c-0.01,0-0.01,0.01-0.02,0.01c-0.59,0.29-1.18,0.59-1.75,0.9c-0.37,0.2-0.73,0.4-1.09,0.6c-0.28,0.16-0.56,0.33-0.83,0.5
		c-0.17,0.11-0.35,0.21-0.52,0.32c-0.43,0.26-0.86,0.53-1.27,0.81c-0.02,0.02-0.03,0.03-0.05,0.04c-0.6,0.41-1.19,0.83-1.77,1.26
		c-0.28,0.22-0.57,0.44-0.85,0.66c-0.28,0.22-0.56,0.45-0.84,0.68c-0.55,0.46-1.09,0.93-1.62,1.41c-0.39,0.36-0.78,0.74-1.16,1.11
		c-0.39,0.38-0.76,0.76-1.13,1.15c-0.24,0.25-0.48,0.51-0.72,0.78c-0.71,0.79-1.4,1.61-2.05,2.45c-0.29,0.37-0.56,0.74-0.83,1.12
		c-0.16,0.22-0.32,0.44-0.48,0.66c-0.03,0.05-0.07,0.11-0.11,0.16c-0.18,0.28-0.37,0.55-0.55,0.83c-0.14,0.22-0.28,0.43-0.42,0.65
		c-0.14,0.22-0.28,0.44-0.41,0.66c-0.01,0.02-0.02,0.04-0.03,0.06c-0.17,0.27-0.33,0.53-0.48,0.8c-0.18,0.31-0.36,0.62-0.53,0.94
		c-0.1,0.17-0.2,0.35-0.29,0.53c-0.22,0.41-0.43,0.82-0.63,1.24c-0.18,0.36-0.35,0.72-0.52,1.09c-0.03,0.05-0.05,0.1-0.08,0.16
		c0,0.01,0,0.01,0,0.01c-0.03,0.06-0.06,0.13-0.09,0.2c-0.16,0.35-0.31,0.71-0.46,1.07c-0.18,0.43-0.36,0.87-0.52,1.3
		c-0.05,0.13-0.1,0.26-0.14,0.39c-0.21,0.57-0.41,1.14-0.6,1.72c-0.04,0.12-0.07,0.24-0.11,0.36c-0.15,0.47-0.28,0.94-0.41,1.42
		c-0.07,0.24-0.13,0.48-0.19,0.72c-0.04,0.2-0.09,0.39-0.14,0.59c-0.11,0.42-0.21,0.84-0.3,1.26c-0.09,0.4-0.17,0.8-0.24,1.19v0.01
		c-0.07,0.41-0.15,0.81-0.21,1.22c-0.07,0.41-0.13,0.81-0.18,1.23c-0.07,0.56-0.13,1.13-0.17,1.7c-0.03,0.31-0.06,0.63-0.07,0.95
		c-0.04,0.5-0.06,1-0.08,1.5c-0.01,0.44-0.02,0.88-0.02,1.32v0.03c0,0.52,0.01,1.05,0.03,1.58c0.02,0.52,0.05,1.06,0.09,1.59
		c0.03,0.53,0.08,1.06,0.14,1.59c0.06,0.53,0.13,1.06,0.2,1.6c0.21,1.38,0.48,2.76,0.82,4.14l-0.02,0.01l-4.46,2.46
		C109.44,140.49,57.28,229.64,57.28,326.51c0,71.63,27.9,138.98,78.55,189.63c50.65,50.65,118,78.55,189.63,78.55
		c39.34,0,77.24-8.32,112.67-24.74c0.8-0.37,1.6-0.75,2.39-1.13c3.25,2.16,7.16,3.48,11.34,3.6l86.02,2.56
		c2.38,0.07,4.72-0.25,6.91-0.91c3.93-1.19,7.41-3.46,10.07-6.5c2.66-3.03,4.5-6.87,5.12-11.11l0.36-2.43
		c0.23-0.02,0.46-0.04,0.69-0.07c1.86-0.21,3.66-0.59,5.4-1.11c6.97-2.1,12.78-6.56,16.63-12.36c3.86-5.78,5.78-12.97,4.93-20.42
		C587.78,518.22,587.4,516.41,586.88,514.67z M214.76,65.82c3.63-6.74,9.76-12.06,17.67-14.44c7.91-2.39,15.96-1.34,22.71,2.27
		c4.74,2.56,8.79,6.35,11.59,11.13c1.19,2.01,2.15,4.2,2.86,6.54c0.59,1.96,0.97,3.93,1.15,5.89c0.56,5.93-0.71,11.74-3.43,16.82
		c-3.62,6.74-9.76,12.06-17.66,14.45c-7.91,2.38-15.96,1.34-22.71-2.28c-4.45-2.38-8.27-5.86-11.03-10.22
		c-1.45-2.25-2.61-4.74-3.42-7.44c-0.49-1.61-0.83-3.22-1.03-4.83C210.64,77.41,211.88,71.2,214.76,65.82z M460.34,448.09
		c-1.94,0.05-3.85,0.36-5.66,0.91c-0.55,0.17-1.09,0.36-1.63,0.57c-2.26,0.88-4.34,2.13-6.17,3.69c-0.9,0.76-1.74,1.6-2.51,2.51
		c-1.43,1.68-3.91,6.08-4.4,8.44 M439.97,464.21c-0.29,1.07-0.49,2.18-0.61,3.32l-0.11,1.05l-0.78,7.49l-2.75,26.45l-0.79,7.6
		l-0.79,7.59l-3.2,30.79c-0.31,2.93-0.01,5.83,0.8,8.5c0.14,0.46,0.29,0.91,0.46,1.36c-33.57,15.48-69.48,23.33-106.74,23.33
		c-68.16,0-132.24-26.54-180.44-74.74S70.28,394.67,70.28,326.51c0-93.18,50.72-178.86,132.43-223.77l0.37-0.21h0.02
		c0.24,0.41,0.49,0.81,0.73,1.21c0.02,0.01,0.02,0.01,0.02,0.02c0.38,0.59,0.77,1.17,1.17,1.74c0.25,0.34,0.5,0.68,0.74,1.01
		c0.2,0.26,0.41,0.52,0.61,0.78c0.89,1.13,1.84,2.21,2.83,3.24c0.24,0.26,0.49,0.51,0.75,0.76c0.5,0.5,1.02,0.99,1.55,1.47
		c0.26,0.23,0.53,0.47,0.8,0.7c0.27,0.23,0.54,0.46,0.82,0.68c1.92,1.57,3.97,2.97,6.11,4.19c0.31,0.17,0.62,0.34,0.93,0.51
		c0.15,0.08,0.3,0.16,0.45,0.23c0.15,0.07,0.3,0.14,0.45,0.22c0.46,0.23,0.92,0.47,1.39,0.69c0.85,0.4,1.72,0.77,2.6,1.12
		c0.4,0.15,0.8,0.3,1.2,0.45c0.04,0.01,0.09,0.02,0.13,0.04c0.41,0.14,0.81,0.28,1.21,0.41c0.8,0.25,1.6,0.48,2.41,0.7
		c0.96,0.24,1.95,0.46,2.94,0.64c0.36,0.08,0.73,0.14,1.09,0.19c0.46,0.08,0.92,0.15,1.39,0.21c0.73,0.09,1.48,0.16,2.22,0.22
		c0.75,0.06,1.5,0.1,2.26,0.12c0.38,0.01,0.76,0.01,1.14,0.01c0.32,0,0.65,0,0.97-0.01h0.24c0.35-0.02,0.71-0.03,1.06-0.05
		c0.37-0.02,0.75-0.04,1.12-0.07c0.37-0.02,0.74-0.06,1.12-0.1c0.19-0.02,0.37-0.04,0.55-0.06c0.43-0.04,0.86-0.1,1.3-0.17
		c0.18-0.02,0.37-0.05,0.56-0.09c0.29-0.04,0.59-0.09,0.89-0.14c0.05-0.01,0.1-0.02,0.15-0.03c0.53-0.1,1.06-0.21,1.59-0.32
		c0.54-0.12,1.07-0.25,1.6-0.39c0.48-0.13,0.97-0.26,1.45-0.41c0.05-0.01,0.09-0.03,0.14-0.04c0.05-0.02,0.1-0.03,0.16-0.05
		c0.2-0.07,0.4-0.13,0.6-0.19c0.16-0.05,0.32-0.1,0.48-0.16c0.04-0.01,0.08-0.03,0.12-0.04c0.12-0.04,0.24-0.08,0.36-0.12
		c0.46-0.15,0.91-0.32,1.35-0.49c0.33-0.12,0.66-0.25,0.99-0.39c0.41-0.17,0.82-0.34,1.22-0.52c1.02-0.46,2.01-0.95,2.98-1.47
		c0.33-0.17,0.66-0.36,0.98-0.54c0.87-0.5,1.72-1.03,2.54-1.58c0.65-0.43,1.28-0.87,1.9-1.34c0.29-0.21,0.57-0.43,0.84-0.65
		c0.26-0.2,0.51-0.4,0.76-0.61c0.57-0.46,1.13-0.94,1.67-1.44c0.18-0.16,0.35-0.32,0.52-0.48c0.13-0.12,0.26-0.24,0.39-0.37
		c0.26-0.24,0.51-0.49,0.76-0.75c0.5-0.5,0.99-1.02,1.47-1.55c0.24-0.26,0.47-0.53,0.7-0.8c0.23-0.27,0.46-0.54,0.68-0.82
		c0.23-0.28,0.46-0.57,0.7-0.86c0.63-0.83,1.25-1.68,1.83-2.55c0.39-0.59,0.76-1.19,1.13-1.79c0.36-0.61,0.71-1.22,1.04-1.84
		c1.06-1.98,1.97-4.03,2.73-6.15c0.44-1.26,0.83-2.54,1.16-3.83c0.11-0.44,0.21-0.87,0.31-1.31c0.11-0.49,0.21-0.99,0.3-1.49
		c0.09-0.42,0.16-0.83,0.22-1.25c0.06-0.41,0.12-0.82,0.18-1.22c0.09-0.74,0.16-1.48,0.22-2.23c0.06-0.75,0.1-1.5,0.12-2.26
		c0.01-0.38,0.01-0.76,0.01-1.14c0-0.32,0-0.65-0.01-0.97v-0.24c-0.02-0.36-0.03-0.71-0.05-1.06c-0.02-0.38-0.04-0.76-0.07-1.13
		c-0.03-0.37-0.06-0.75-0.1-1.12c-0.02-0.22-0.05-0.44-0.07-0.67c-0.01-0.03-0.01-0.06-0.01-0.09c0-0.03-0.01-0.06-0.02-0.1
		c-0.02-0.2-0.04-0.41-0.07-0.62c0.02,0.21,0.05,0.42,0.08,0.62l1.91-0.3v-0.01c12.72-1.93,25.72-2.91,38.67-2.91
		c68.16,0,132.24,26.54,180.44,74.74c48.2,48.2,74.74,112.28,74.74,180.44c0,49.35-14.11,97.23-40.81,138.47
		c-0.41,0.64-0.82,1.26-1.22,1.86l-29.18-7.3l-9.56-2.39l-9.54-2.38h-0.01l-24.14-6.04c-1.14-0.28-4.66-0.83-5.84-0.64
		 M441.81,513.48l-0.03,0.06 M545.8,554.37c-0.22,1.46-0.83,2.73-1.74,3.77c-0.9,1.03-2.09,1.81-3.41,2.2
		c-0.74,0.23-1.52,0.34-2.34,0.31l-77.96-2.32l-8.06-0.24c-1.66-0.06-3.1-0.62-4.3-1.55c-1.19-0.93-2.09-2.23-2.52-3.68
		c-0.1-0.32-0.17-0.64-0.22-0.98c-0.1-0.6-0.11-1.23-0.05-1.89l8.42-80.98c0.16-1.57,0.76-2.88,1.68-3.98
		c0.92-1.08,2.16-1.9,3.52-2.3c1.22-0.37,2.51-0.43,3.89-0.09l67.07,16.76l13.62,3.4l5.99,1.5c1.31,0.33,2.41,0.97,3.32,1.85
		c0.9,0.87,1.57,1.97,1.93,3.17c0.31,1,0.4,2.07,0.23,3.18l-0.08,0.54c-0.23,0.02-0.46,0.04-0.69,0.07
		c-1.85,0.21-3.66,0.59-5.4,1.11c-6.97,2.11-12.78,6.57-16.63,12.36c-3.86,5.78-5.78,12.98-4.93,20.42c0.21,1.86,0.59,3.67,1.11,5.4
		c2.1,6.97,6.57,12.78,12.36,16.63c1.73,1.16,3.59,2.14,5.55,2.92L545.8,554.37z M571.13,532.55c-2.01,3.03-5.02,5.36-8.59,6.49
		c-0.08,0.03-0.17,0.05-0.25,0.08c-0.92,0.28-1.88,0.48-2.88,0.6c-1.44,0.16-2.85,0.13-4.21-0.06c-2.41-0.35-4.66-1.24-6.65-2.56
		c-0.07-0.05-0.14-0.09-0.2-0.14c-3-2.06-5.28-5.09-6.37-8.7c-0.28-0.92-0.48-1.88-0.59-2.88c-0.46-4,0.55-7.75,2.61-10.86
		c2.02-3.02,5.02-5.35,8.59-6.49c0.08-0.03,0.17-0.05,0.25-0.08c0.92-0.28,1.88-0.48,2.88-0.59c1.44-0.16,2.85-0.13,4.21,0.06
		c2.42,0.35,4.67,1.24,6.65,2.55c0.07,0.05,0.14,0.09,0.2,0.14c3,2.07,5.28,5.1,6.37,8.7c0.28,0.92,0.48,1.88,0.6,2.89
		C574.2,525.69,573.19,529.45,571.13,532.55z"/>
</g>
<g>
	<path class="st0" d="M680.78,119.01h78.43c18.09,0,31.66,3.91,40.71,11.73c9.05,7.82,13.57,18.71,13.57,32.66
		c0,7.82-1.15,14.3-3.45,19.44c-2.3,5.14-4.98,9.28-8.05,12.42c-3.07,3.14-6.09,5.41-9.08,6.79c-2.99,1.38-5.17,2.3-6.56,2.76v0.46
		c2.45,0.31,5.1,1.07,7.94,2.3c2.84,1.23,5.48,3.18,7.94,5.86c2.45,2.68,4.48,6.17,6.1,10.47c1.61,4.29,2.42,9.66,2.42,16.1
		c0,9.66,0.73,18.44,2.19,26.34c1.46,7.9,3.72,13.53,6.78,16.9h-30.82c-2.15-3.53-3.41-7.44-3.79-11.73
		c-0.38-4.29-0.58-8.43-0.58-12.42c0-7.51-0.46-13.99-1.38-19.44c-0.92-5.44-2.61-9.97-5.06-13.57c-2.45-3.6-5.79-6.25-10-7.94
		c-4.22-1.69-9.62-2.53-16.22-2.53h-42.32v67.62h-28.75V119.01z M709.53,193.76h47.15c9.2,0,16.18-2.18,20.93-6.55
		c4.75-4.37,7.13-10.93,7.13-19.67c0-5.21-0.77-9.47-2.3-12.77c-1.53-3.3-3.64-5.86-6.33-7.71c-2.68-1.84-5.75-3.07-9.2-3.68
		c-3.45-0.61-7.02-0.92-10.7-0.92h-46.69V193.76z"/>
	<path class="st0" d="M893.53,286.45c-9.51,0-17.98-1.57-25.42-4.72c-7.44-3.14-13.72-7.48-18.86-13
		c-5.14-5.52-9.05-12.11-11.73-19.78c-2.68-7.67-4.03-16.1-4.03-25.3c0-9.05,1.34-17.4,4.03-25.07c2.68-7.67,6.59-14.26,11.73-19.78
		c5.14-5.52,11.42-9.85,18.86-13c7.44-3.14,15.91-4.71,25.42-4.71c9.51,0,17.98,1.57,25.42,4.71c7.44,3.14,13.72,7.48,18.86,13
		c5.14,5.52,9.05,12.11,11.73,19.78c2.68,7.67,4.02,16.02,4.02,25.07c0,9.2-1.34,17.63-4.02,25.3c-2.68,7.67-6.59,14.26-11.73,19.78
		c-5.14,5.52-11.42,9.85-18.86,13C911.5,284.88,903.03,286.45,893.53,286.45z M893.53,265.75c5.83,0,10.89-1.23,15.18-3.68
		c4.29-2.45,7.82-5.67,10.58-9.66c2.76-3.99,4.79-8.47,6.1-13.46c1.3-4.98,1.96-10.08,1.96-15.29c0-5.06-0.65-10.12-1.96-15.18
		c-1.3-5.06-3.33-9.54-6.1-13.46c-2.76-3.91-6.29-7.09-10.58-9.54c-4.29-2.45-9.35-3.68-15.18-3.68c-5.83,0-10.89,1.23-15.18,3.68
		c-4.29,2.45-7.82,5.63-10.58,9.54c-2.76,3.91-4.79,8.4-6.09,13.46c-1.3,5.06-1.96,10.12-1.96,15.18c0,5.21,0.65,10.31,1.96,15.29
		c1.3,4.98,3.33,9.47,6.09,13.46c2.76,3.99,6.29,7.21,10.58,9.66C882.64,264.53,887.7,265.75,893.53,265.75z"/>
	<path class="st0" d="M976.09,119.01h26.22v60.72h0.46c1.84-2.91,4.06-5.52,6.67-7.82c2.61-2.3,5.48-4.26,8.62-5.87
		c3.14-1.61,6.44-2.84,9.89-3.68c3.45-0.84,6.86-1.26,10.23-1.26c9.35,0,17.52,1.65,24.5,4.94c6.98,3.3,12.77,7.82,17.37,13.57
		c4.6,5.75,8.05,12.46,10.35,20.12c2.3,7.67,3.45,15.87,3.45,24.61c0,7.97-1.04,15.72-3.1,23.23c-2.07,7.51-5.21,14.15-9.43,19.9
		c-4.22,5.75-9.54,10.35-15.98,13.8c-6.44,3.45-14.03,5.18-22.77,5.18c-3.99,0-8.01-0.27-12.08-0.81c-4.06-0.54-7.93-1.57-11.61-3.1
		s-7.02-3.53-10-5.98c-2.99-2.45-5.48-5.67-7.48-9.66h-0.46v16.33h-24.84V119.01z M1067.63,223.89c0-5.37-0.69-10.58-2.07-15.64
		s-3.45-9.54-6.21-13.46s-6.21-7.05-10.35-9.43c-4.14-2.38-8.89-3.56-14.26-3.56c-11.04,0-19.36,3.83-24.96,11.5
		c-5.6,7.67-8.4,17.86-8.4,30.59c0,5.98,0.73,11.54,2.19,16.67c1.46,5.14,3.64,9.54,6.55,13.23c2.91,3.68,6.4,6.59,10.47,8.74
		c4.06,2.15,8.78,3.22,14.15,3.22c5.98,0,11.04-1.23,15.18-3.68c4.14-2.45,7.55-5.63,10.24-9.54c2.68-3.91,4.6-8.36,5.75-13.34
		C1067.06,234.21,1067.63,229.11,1067.63,223.89z"/>
	<path class="st0" d="M1170.44,286.45c-9.51,0-17.98-1.57-25.42-4.72c-7.44-3.14-13.72-7.48-18.86-13
		c-5.14-5.52-9.05-12.11-11.73-19.78c-2.68-7.67-4.03-16.1-4.03-25.3c0-9.05,1.34-17.4,4.03-25.07c2.68-7.67,6.59-14.26,11.73-19.78
		c5.14-5.52,11.42-9.85,18.86-13c7.44-3.14,15.91-4.71,25.42-4.71c9.51,0,17.98,1.57,25.42,4.71c7.44,3.14,13.72,7.48,18.86,13
		c5.14,5.52,9.05,12.11,11.73,19.78c2.68,7.67,4.02,16.02,4.02,25.07c0,9.2-1.34,17.63-4.02,25.3c-2.68,7.67-6.59,14.26-11.73,19.78
		c-5.14,5.52-11.42,9.85-18.86,13C1188.42,284.88,1179.95,286.45,1170.44,286.45z M1170.44,265.75c5.83,0,10.89-1.23,15.18-3.68
		c4.29-2.45,7.82-5.67,10.58-9.66c2.76-3.99,4.79-8.47,6.1-13.46c1.3-4.98,1.96-10.08,1.96-15.29c0-5.06-0.65-10.12-1.96-15.18
		c-1.3-5.06-3.33-9.54-6.1-13.46c-2.76-3.91-6.29-7.09-10.58-9.54c-4.29-2.45-9.35-3.68-15.18-3.68c-5.83,0-10.89,1.23-15.18,3.68
		c-4.29,2.45-7.82,5.63-10.58,9.54c-2.76,3.91-4.79,8.4-6.09,13.46c-1.3,5.06-1.96,10.12-1.96,15.18c0,5.21,0.65,10.31,1.96,15.29
		c1.3,4.98,3.33,9.47,6.09,13.46c2.76,3.99,6.29,7.21,10.58,9.66C1159.55,264.53,1164.61,265.75,1170.44,265.75z"/>
	<path class="st0" d="M1240.36,164.32h19.78v-35.65h26.22v35.65h23.69v19.55h-23.69v63.48c0,2.76,0.12,5.14,0.35,7.13
		c0.23,1.99,0.77,3.68,1.61,5.06c0.84,1.38,2.11,2.42,3.79,3.1c1.69,0.69,3.99,1.04,6.9,1.04c1.84,0,3.68-0.04,5.52-0.12
		c1.84-0.08,3.68-0.34,5.52-0.81V283c-2.91,0.31-5.75,0.61-8.51,0.92c-2.76,0.31-5.6,0.46-8.51,0.46c-6.9,0-12.46-0.65-16.67-1.96
		c-4.22-1.3-7.51-3.22-9.89-5.75c-2.38-2.53-3.99-5.71-4.83-9.54c-0.84-3.83-1.34-8.2-1.5-13.11v-70.15h-19.78V164.32z"/>
	<path class="st0" d="M1396.53,119.01h72.45c11.65,0,21.16,1.69,28.52,5.06c7.36,3.37,13.03,7.59,17.02,12.65
		c3.99,5.06,6.71,10.58,8.16,16.56c1.46,5.98,2.19,11.5,2.19,16.56s-0.73,10.54-2.19,16.45c-1.46,5.9-4.18,11.38-8.16,16.44
		c-3.99,5.06-9.66,9.24-17.02,12.54c-7.36,3.3-16.87,4.94-28.52,4.94h-43.7v63.02h-28.75V119.01z M1425.28,196.75h42.09
		c3.22,0,6.52-0.46,9.89-1.38c3.37-0.92,6.48-2.42,9.31-4.49c2.84-2.07,5.14-4.83,6.9-8.28c1.76-3.45,2.65-7.78,2.65-13
		c0-5.37-0.77-9.81-2.3-13.34c-1.53-3.53-3.6-6.33-6.21-8.4c-2.61-2.07-5.6-3.49-8.97-4.25c-3.37-0.77-6.98-1.15-10.81-1.15h-42.55
		V196.75z"/>
	<path class="st0" d="M1566.73,230.56c0,4.6,0.65,9.05,1.96,13.34c1.3,4.29,3.26,8.05,5.86,11.27c2.61,3.22,5.9,5.79,9.89,7.71
		c3.99,1.92,8.74,2.88,14.26,2.88c7.67,0,13.84-1.65,18.51-4.94c4.68-3.3,8.17-8.24,10.46-14.83h24.84
		c-1.38,6.44-3.76,12.19-7.13,17.25c-3.37,5.06-7.44,9.31-12.19,12.76c-4.75,3.45-10.08,6.06-15.99,7.82
		c-5.9,1.76-12.08,2.65-18.51,2.65c-9.35,0-17.63-1.53-24.84-4.6c-7.21-3.07-13.3-7.36-18.28-12.88
		c-4.98-5.52-8.74-12.11-11.27-19.78c-2.53-7.67-3.8-16.1-3.8-25.3c0-8.43,1.34-16.45,4.03-24.04c2.68-7.59,6.52-14.26,11.5-20.01
		c4.98-5.75,11-10.31,18.05-13.69c7.05-3.37,15.03-5.06,23.92-5.06c9.35,0,17.75,1.96,25.19,5.86c7.44,3.91,13.61,9.08,18.51,15.52
		c4.91,6.44,8.47,13.84,10.7,22.2c2.22,8.36,2.8,16.98,1.72,25.88H1566.73z M1627.91,213.31c-0.31-4.14-1.19-8.13-2.65-11.96
		c-1.46-3.83-3.45-7.17-5.98-10c-2.53-2.84-5.6-5.14-9.2-6.9c-3.6-1.76-7.63-2.65-12.08-2.65c-4.6,0-8.78,0.81-12.53,2.42
		c-3.76,1.61-6.98,3.83-9.66,6.67c-2.68,2.84-4.83,6.17-6.44,10.01c-1.61,3.83-2.49,7.97-2.65,12.42H1627.91z"/>
	<path class="st0" d="M1674.14,164.32h24.61v23h0.46c0.77-3.22,2.26-6.36,4.49-9.43c2.22-3.07,4.91-5.87,8.05-8.4
		c3.14-2.53,6.63-4.56,10.46-6.1c3.83-1.53,7.74-2.3,11.73-2.3c3.07,0,5.18,0.08,6.33,0.23c1.15,0.15,2.34,0.31,3.57,0.46v25.3
		c-1.84-0.31-3.72-0.57-5.63-0.8c-1.92-0.23-3.8-0.35-5.64-0.35c-4.45,0-8.62,0.88-12.54,2.65c-3.91,1.76-7.32,4.37-10.23,7.82
		c-2.92,3.45-5.21,7.71-6.9,12.77c-1.69,5.06-2.53,10.89-2.53,17.48v56.58h-26.22V164.32z"/>
	<path class="st0" d="M1831.23,204.11c-1.08-7.36-4.03-12.92-8.86-16.67c-4.83-3.76-10.92-5.64-18.29-5.64
		c-3.37,0-6.98,0.58-10.81,1.73c-3.83,1.15-7.36,3.3-10.58,6.44c-3.22,3.14-5.9,7.51-8.05,13.11c-2.15,5.6-3.22,12.92-3.22,21.96
		c0,4.91,0.58,9.81,1.73,14.72c1.15,4.91,2.99,9.28,5.52,13.11c2.53,3.83,5.79,6.94,9.78,9.31c3.99,2.38,8.82,3.56,14.49,3.56
		c7.67,0,13.99-2.38,18.97-7.13c4.98-4.75,8.09-11.42,9.32-20.01h26.22c-2.45,15.49-8.32,27.33-17.59,35.54
		c-9.28,8.2-21.58,12.31-36.92,12.31c-9.35,0-17.6-1.57-24.73-4.72c-7.13-3.14-13.15-7.44-18.05-12.88
		c-4.91-5.44-8.62-11.92-11.16-19.44c-2.53-7.51-3.79-15.64-3.79-24.38c0-8.89,1.23-17.25,3.68-25.07
		c2.45-7.82,6.13-14.61,11.04-20.36c4.91-5.75,11-10.27,18.29-13.57c7.28-3.3,15.83-4.94,25.65-4.94c6.9,0,13.46,0.88,19.67,2.65
		c6.21,1.76,11.73,4.41,16.56,7.94c4.83,3.53,8.78,7.97,11.84,13.34c3.07,5.37,4.91,11.73,5.52,19.09H1831.23z"/>
	<path class="st0" d="M1899.31,230.56c0,4.6,0.65,9.05,1.96,13.34c1.3,4.29,3.26,8.05,5.87,11.27c2.61,3.22,5.9,5.79,9.89,7.71
		c3.99,1.92,8.74,2.88,14.26,2.88c7.67,0,13.84-1.65,18.51-4.94c4.68-3.3,8.17-8.24,10.46-14.83h24.84
		c-1.38,6.44-3.76,12.19-7.13,17.25c-3.37,5.06-7.44,9.31-12.19,12.76c-4.75,3.45-10.08,6.06-15.99,7.82
		c-5.9,1.76-12.08,2.65-18.51,2.65c-9.35,0-17.63-1.53-24.84-4.6c-7.21-3.07-13.3-7.36-18.29-12.88
		c-4.98-5.52-8.74-12.11-11.27-19.78c-2.53-7.67-3.79-16.1-3.79-25.3c0-8.43,1.34-16.45,4.03-24.04c2.68-7.59,6.52-14.26,11.5-20.01
		c4.98-5.75,11-10.31,18.05-13.69c7.05-3.37,15.03-5.06,23.92-5.06c9.35,0,17.75,1.96,25.19,5.86c7.44,3.91,13.61,9.08,18.51,15.52
		c4.91,6.44,8.47,13.84,10.7,22.2c2.22,8.36,2.8,16.98,1.72,25.88H1899.31z M1960.49,213.31c-0.31-4.14-1.19-8.13-2.65-11.96
		c-1.46-3.83-3.45-7.17-5.98-10c-2.53-2.84-5.6-5.14-9.2-6.9c-3.6-1.76-7.63-2.65-12.08-2.65c-4.6,0-8.78,0.81-12.54,2.42
		c-3.76,1.61-6.98,3.83-9.66,6.67c-2.68,2.84-4.83,6.17-6.44,10.01c-1.61,3.83-2.49,7.97-2.65,12.42H1960.49z"/>
	<path class="st0" d="M2007.41,164.32h24.84v16.1h0.46c3.68-6.9,8.82-11.84,15.41-14.83c6.59-2.99,13.72-4.48,21.39-4.48
		c9.35,0,17.52,1.65,24.5,4.94c6.98,3.3,12.76,7.82,17.37,13.57c4.6,5.75,8.05,12.46,10.35,20.12c2.3,7.67,3.45,15.87,3.45,24.61
		c0,7.97-1.04,15.72-3.11,23.23c-2.07,7.51-5.21,14.15-9.43,19.9c-4.22,5.75-9.54,10.35-15.98,13.8
		c-6.44,3.45-14.03,5.18-22.77,5.18c-3.83,0-7.67-0.35-11.5-1.04c-3.83-0.69-7.51-1.8-11.04-3.33c-3.53-1.53-6.79-3.49-9.78-5.87
		c-2.99-2.38-5.48-5.17-7.47-8.4h-0.46v59.34h-26.22V164.32z M2098.95,223.89c0-5.37-0.69-10.58-2.07-15.64s-3.45-9.54-6.21-13.46
		s-6.21-7.05-10.35-9.43c-4.14-2.38-8.89-3.56-14.26-3.56c-11.04,0-19.36,3.83-24.95,11.5c-5.6,7.67-8.39,17.86-8.39,30.59
		c0,5.98,0.73,11.54,2.18,16.67c1.46,5.14,3.64,9.54,6.56,13.23c2.91,3.68,6.4,6.59,10.46,8.74c4.06,2.15,8.78,3.22,14.14,3.22
		c5.98,0,11.04-1.23,15.18-3.68c4.14-2.45,7.55-5.63,10.23-9.54c2.68-3.91,4.6-8.36,5.75-13.34
		C2098.37,234.21,2098.95,229.11,2098.95,223.89z"/>
	<path class="st0" d="M2135.28,164.32h19.78v-35.65h26.22v35.65h23.69v19.55h-23.69v63.48c0,2.76,0.12,5.14,0.34,7.13
		c0.23,1.99,0.77,3.68,1.61,5.06c0.84,1.38,2.11,2.42,3.79,3.1c1.69,0.69,3.99,1.04,6.9,1.04c1.84,0,3.68-0.04,5.52-0.12
		c1.84-0.08,3.68-0.34,5.52-0.81V283c-2.92,0.31-5.75,0.61-8.51,0.92c-2.76,0.31-5.6,0.46-8.51,0.46c-6.9,0-12.46-0.65-16.67-1.96
		c-4.22-1.3-7.51-3.22-9.89-5.75c-2.38-2.53-3.99-5.71-4.83-9.54c-0.84-3.83-1.34-8.2-1.5-13.11v-70.15h-19.78V164.32z"/>
	<path class="st0" d="M2224.52,119.01h26.22v24.84h-26.22V119.01z M2224.52,164.32h26.22v118.91h-26.22V164.32z"/>
	<path class="st0" d="M2333.77,286.45c-9.51,0-17.98-1.57-25.42-4.72c-7.44-3.14-13.72-7.48-18.86-13
		c-5.14-5.52-9.05-12.11-11.73-19.78c-2.68-7.67-4.02-16.1-4.02-25.3c0-9.05,1.34-17.4,4.02-25.07c2.68-7.67,6.59-14.26,11.73-19.78
		c5.14-5.52,11.42-9.85,18.86-13c7.44-3.14,15.91-4.71,25.42-4.71c9.51,0,17.98,1.57,25.42,4.71c7.44,3.14,13.72,7.48,18.86,13
		c5.14,5.52,9.05,12.11,11.73,19.78c2.68,7.67,4.02,16.02,4.02,25.07c0,9.2-1.34,17.63-4.02,25.3c-2.68,7.67-6.59,14.26-11.73,19.78
		c-5.14,5.52-11.42,9.85-18.86,13C2351.75,284.88,2343.28,286.45,2333.77,286.45z M2333.77,265.75c5.83,0,10.89-1.23,15.18-3.68
		c4.29-2.45,7.82-5.67,10.58-9.66c2.76-3.99,4.79-8.47,6.09-13.46c1.3-4.98,1.96-10.08,1.96-15.29c0-5.06-0.65-10.12-1.96-15.18
		c-1.3-5.06-3.33-9.54-6.09-13.46c-2.76-3.91-6.29-7.09-10.58-9.54c-4.29-2.45-9.35-3.68-15.18-3.68c-5.83,0-10.89,1.23-15.18,3.68
		c-4.29,2.45-7.82,5.63-10.58,9.54s-4.79,8.4-6.09,13.46c-1.3,5.06-1.96,10.12-1.96,15.18c0,5.21,0.65,10.31,1.96,15.29
		c1.3,4.98,3.33,9.47,6.09,13.46c2.76,3.99,6.29,7.21,10.58,9.66C2322.88,264.53,2327.94,265.75,2333.77,265.75z"/>
	<path class="st0" d="M2415.65,164.32h24.84v17.48l0.46,0.46c3.99-6.59,9.2-11.77,15.64-15.52c6.44-3.76,13.57-5.63,21.39-5.63
		c13.03,0,23.31,3.37,30.82,10.12c7.51,6.75,11.27,16.87,11.27,30.36v81.65h-26.22v-74.75c-0.31-9.35-2.3-16.14-5.98-20.35
		c-3.68-4.22-9.43-6.33-17.25-6.33c-4.45,0-8.43,0.81-11.96,2.42c-3.53,1.61-6.52,3.83-8.97,6.67c-2.45,2.84-4.37,6.17-5.75,10.01
		c-1.38,3.83-2.07,7.9-2.07,12.19v70.15h-26.22V164.32z"/>
	<path class="st0" d="M776.69,476.78c0,3.22,0.42,5.52,1.26,6.9c0.84,1.38,2.49,2.07,4.95,2.07c0.77,0,1.69,0,2.76,0
		c1.07,0,2.3-0.15,3.68-0.46v18.17c-0.92,0.3-2.11,0.65-3.56,1.03c-1.46,0.38-2.95,0.73-4.48,1.04c-1.53,0.31-3.07,0.54-4.6,0.69
		c-1.53,0.15-2.84,0.23-3.91,0.23c-5.37,0-9.81-1.07-13.34-3.22c-3.53-2.15-5.83-5.9-6.9-11.27c-5.21,5.06-11.62,8.74-19.21,11.04
		c-7.59,2.3-14.91,3.45-21.97,3.45c-5.37,0-10.5-0.73-15.41-2.18c-4.91-1.46-9.24-3.6-13-6.44c-3.76-2.83-6.75-6.44-8.97-10.81
		c-2.22-4.37-3.33-9.47-3.33-15.29c0-7.36,1.34-13.34,4.02-17.94c2.68-4.6,6.21-8.2,10.58-10.81c4.37-2.61,9.28-4.49,14.72-5.63
		c5.44-1.15,10.92-2.03,16.44-2.65c4.75-0.92,9.28-1.57,13.57-1.96c4.29-0.38,8.09-1.03,11.38-1.96c3.3-0.92,5.9-2.34,7.82-4.25
		c1.92-1.92,2.88-4.79,2.88-8.62c0-3.37-0.8-6.13-2.41-8.28c-1.61-2.15-3.6-3.79-5.98-4.95c-2.38-1.15-5.02-1.92-7.93-2.3
		c-2.91-0.38-5.67-0.58-8.28-0.58c-7.36,0-13.42,1.53-18.17,4.6c-4.75,3.07-7.44,7.82-8.05,14.26h-26.22
		c0.46-7.67,2.3-14.03,5.52-19.09c3.22-5.06,7.32-9.12,12.31-12.19c4.98-3.07,10.62-5.21,16.9-6.44c6.29-1.23,12.73-1.84,19.32-1.84
		c5.83,0,11.58,0.61,17.25,1.84c5.67,1.23,10.77,3.22,15.3,5.98c4.52,2.76,8.17,6.33,10.92,10.69c2.76,4.37,4.14,9.7,4.14,15.99
		V476.78z M750.47,443.66c-3.99,2.61-8.89,4.18-14.72,4.71c-5.83,0.54-11.65,1.34-17.48,2.42c-2.76,0.46-5.44,1.11-8.05,1.96
		c-2.61,0.84-4.91,2-6.9,3.45c-1.99,1.46-3.56,3.38-4.71,5.75c-1.15,2.38-1.73,5.25-1.73,8.62c0,2.92,0.84,5.37,2.53,7.36
		c1.69,1.99,3.72,3.56,6.1,4.71c2.38,1.15,4.98,1.96,7.82,2.42c2.84,0.46,5.41,0.69,7.71,0.69c2.91,0,6.06-0.38,9.43-1.15
		c3.37-0.77,6.55-2.07,9.54-3.91c2.99-1.84,5.48-4.18,7.48-7.01c1.99-2.84,2.99-6.33,2.99-10.46V443.66z"/>
	<path class="st0" d="M804.98,384.32h24.84v17.48l0.46,0.46c3.99-6.59,9.2-11.77,15.64-15.53c6.44-3.75,13.57-5.63,21.39-5.63
		c13.03,0,23.31,3.38,30.82,10.12c7.51,6.75,11.27,16.87,11.27,30.36v81.65h-26.22v-74.75c-0.31-9.35-2.3-16.14-5.98-20.35
		c-3.68-4.22-9.43-6.33-17.25-6.33c-4.45,0-8.43,0.8-11.96,2.42c-3.53,1.61-6.52,3.83-8.97,6.67c-2.45,2.84-4.37,6.17-5.75,10
		c-1.38,3.83-2.07,7.9-2.07,12.19v70.15h-26.22V384.32z"/>
	<path class="st0" d="M1049.01,503.23h-24.84v-16.1h-0.46c-3.53,6.9-8.66,11.84-15.41,14.83c-6.75,2.99-13.88,4.48-21.39,4.48
		c-9.35,0-17.52-1.65-24.5-4.94c-6.98-3.3-12.76-7.78-17.36-13.46c-4.6-5.67-8.05-12.38-10.35-20.12
		c-2.3-7.74-3.45-16.06-3.45-24.96c0-10.73,1.46-20.01,4.37-27.83c2.91-7.82,6.79-14.26,11.62-19.32
		c4.83-5.06,10.35-8.78,16.56-11.15c6.21-2.38,12.53-3.57,18.97-3.57c3.68,0,7.44,0.34,11.27,1.04c3.83,0.69,7.51,1.8,11.04,3.33
		c3.53,1.53,6.79,3.49,9.77,5.87c2.99,2.38,5.48,5.17,7.48,8.39h0.46v-60.72h26.22V503.23z M957.47,445.04
		c0,5.06,0.65,10.04,1.96,14.95c1.3,4.91,3.3,9.28,5.98,13.11c2.68,3.83,6.09,6.9,10.23,9.2c4.14,2.3,9.05,3.45,14.72,3.45
		c5.83,0,10.85-1.22,15.06-3.68c4.22-2.45,7.67-5.67,10.35-9.66c2.68-3.99,4.68-8.47,5.98-13.46c1.3-4.98,1.95-10.08,1.95-15.29
		c0-13.18-2.95-23.46-8.85-30.82c-5.9-7.36-13.91-11.04-24.03-11.04c-6.13,0-11.31,1.26-15.52,3.79c-4.22,2.53-7.67,5.83-10.35,9.89
		c-2.68,4.06-4.6,8.67-5.75,13.8C958.04,434.43,957.47,439.68,957.47,445.04z"/>
	<path class="st0" d="M1145.14,339.01h28.75v139.38h83.49v24.84h-112.24V339.01z"/>
	<path class="st0" d="M1293.95,450.56c0,4.6,0.65,9.05,1.96,13.34c1.3,4.29,3.26,8.05,5.86,11.27c2.61,3.22,5.9,5.79,9.89,7.7
		c3.99,1.92,8.74,2.88,14.26,2.88c7.67,0,13.84-1.65,18.51-4.94c4.68-3.3,8.17-8.24,10.47-14.83h24.84
		c-1.38,6.44-3.76,12.19-7.13,17.25c-3.37,5.06-7.44,9.31-12.19,12.76c-4.75,3.45-10.08,6.06-15.99,7.82
		c-5.9,1.76-12.07,2.64-18.51,2.64c-9.35,0-17.63-1.53-24.84-4.6c-7.21-3.07-13.3-7.36-18.28-12.88
		c-4.98-5.52-8.74-12.11-11.27-19.78c-2.53-7.67-3.8-16.1-3.8-25.3c0-8.43,1.34-16.45,4.03-24.04c2.68-7.59,6.52-14.26,11.5-20.01
		c4.98-5.75,11-10.31,18.05-13.68c7.05-3.37,15.03-5.06,23.92-5.06c9.35,0,17.75,1.96,25.19,5.87c7.44,3.91,13.61,9.08,18.52,15.52
		c4.91,6.44,8.47,13.84,10.69,22.2c2.22,8.36,2.8,16.98,1.73,25.88H1293.95z M1355.13,433.31c-0.31-4.14-1.19-8.12-2.65-11.96
		c-1.46-3.83-3.45-7.17-5.98-10c-2.53-2.84-5.6-5.14-9.2-6.9c-3.6-1.76-7.63-2.64-12.08-2.64c-4.6,0-8.78,0.8-12.53,2.42
		c-3.76,1.61-6.98,3.83-9.66,6.67c-2.68,2.84-4.83,6.17-6.44,10c-1.61,3.83-2.49,7.97-2.65,12.42H1355.13z"/>
	<path class="st0" d="M1500.95,476.78c0,3.22,0.42,5.52,1.26,6.9c0.84,1.38,2.49,2.07,4.95,2.07c0.77,0,1.69,0,2.76,0
		c1.07,0,2.3-0.15,3.68-0.46v18.17c-0.92,0.3-2.11,0.65-3.56,1.03c-1.46,0.38-2.95,0.73-4.48,1.04c-1.53,0.31-3.07,0.54-4.6,0.69
		c-1.53,0.15-2.84,0.23-3.91,0.23c-5.37,0-9.81-1.07-13.34-3.22c-3.53-2.15-5.83-5.9-6.9-11.27c-5.21,5.06-11.62,8.74-19.21,11.04
		c-7.59,2.3-14.91,3.45-21.97,3.45c-5.37,0-10.5-0.73-15.41-2.18c-4.91-1.46-9.24-3.6-13-6.44c-3.76-2.83-6.75-6.44-8.97-10.81
		c-2.22-4.37-3.33-9.47-3.33-15.29c0-7.36,1.34-13.34,4.02-17.94c2.68-4.6,6.21-8.2,10.58-10.81c4.37-2.61,9.28-4.49,14.72-5.63
		c5.44-1.15,10.92-2.03,16.44-2.65c4.75-0.92,9.28-1.57,13.57-1.96c4.29-0.38,8.09-1.03,11.38-1.96c3.3-0.92,5.9-2.34,7.82-4.25
		c1.92-1.92,2.88-4.79,2.88-8.62c0-3.37-0.8-6.13-2.41-8.28c-1.61-2.15-3.6-3.79-5.98-4.95c-2.38-1.15-5.02-1.92-7.93-2.3
		c-2.91-0.38-5.67-0.58-8.28-0.58c-7.36,0-13.42,1.53-18.17,4.6c-4.75,3.07-7.44,7.82-8.05,14.26h-26.22
		c0.46-7.67,2.3-14.03,5.52-19.09c3.22-5.06,7.32-9.12,12.31-12.19c4.98-3.07,10.62-5.21,16.9-6.44c6.29-1.23,12.73-1.84,19.32-1.84
		c5.83,0,11.58,0.61,17.25,1.84c5.67,1.23,10.77,3.22,15.3,5.98c4.52,2.76,8.17,6.33,10.92,10.69c2.76,4.37,4.14,9.7,4.14,15.99
		V476.78z M1474.73,443.66c-3.99,2.61-8.89,4.18-14.72,4.71c-5.83,0.54-11.65,1.34-17.48,2.42c-2.76,0.46-5.44,1.11-8.05,1.96
		c-2.61,0.84-4.91,2-6.9,3.45c-1.99,1.46-3.56,3.38-4.71,5.75c-1.15,2.38-1.73,5.25-1.73,8.62c0,2.92,0.84,5.37,2.53,7.36
		c1.69,1.99,3.72,3.56,6.1,4.71c2.38,1.15,4.98,1.96,7.82,2.42c2.84,0.46,5.41,0.69,7.71,0.69c2.91,0,6.06-0.38,9.43-1.15
		c3.37-0.77,6.55-2.07,9.54-3.91c2.99-1.84,5.48-4.18,7.48-7.01c1.99-2.84,2.99-6.33,2.99-10.46V443.66z"/>
	<path class="st0" d="M1529.24,384.32h24.61v23h0.46c0.77-3.22,2.26-6.36,4.48-9.43c2.22-3.07,4.91-5.87,8.05-8.39
		c3.14-2.53,6.63-4.56,10.47-6.1c3.83-1.53,7.74-2.3,11.73-2.3c3.06,0,5.18,0.08,6.32,0.23c1.15,0.15,2.34,0.31,3.57,0.46v25.3
		c-1.84-0.31-3.72-0.58-5.63-0.8c-1.92-0.23-3.8-0.35-5.64-0.35c-4.45,0-8.62,0.88-12.53,2.65c-3.91,1.76-7.32,4.37-10.23,7.82
		c-2.91,3.45-5.21,7.71-6.9,12.77c-1.69,5.06-2.53,10.89-2.53,17.48v56.58h-26.22V384.32z"/>
	<path class="st0" d="M1614.34,384.32h24.84v17.48l0.46,0.46c3.99-6.59,9.2-11.77,15.64-15.53c6.44-3.75,13.57-5.63,21.39-5.63
		c13.03,0,23.31,3.38,30.82,10.12c7.51,6.75,11.27,16.87,11.27,30.36v81.65h-26.22v-74.75c-0.31-9.35-2.3-16.14-5.98-20.35
		c-3.68-4.22-9.43-6.33-17.25-6.33c-4.45,0-8.43,0.8-11.96,2.42c-3.53,1.61-6.52,3.83-8.97,6.67c-2.45,2.84-4.37,6.17-5.75,10
		c-1.38,3.83-2.07,7.9-2.07,12.19v70.15h-26.22V384.32z"/>
	<path class="st0" d="M1747.05,339.01h26.22v24.84h-26.22V339.01z M1747.05,384.32h26.22v118.91h-26.22V384.32z"/>
	<path class="st0" d="M1801.78,384.32h24.84v17.48l0.46,0.46c3.99-6.59,9.2-11.77,15.64-15.53c6.44-3.75,13.57-5.63,21.39-5.63
		c13.03,0,23.31,3.38,30.82,10.12c7.51,6.75,11.27,16.87,11.27,30.36v81.65h-26.22v-74.75c-0.31-9.35-2.3-16.14-5.98-20.35
		c-3.68-4.22-9.43-6.33-17.25-6.33c-4.45,0-8.43,0.8-11.96,2.42c-3.53,1.61-6.52,3.83-8.97,6.67c-2.45,2.84-4.37,6.17-5.75,10
		c-1.38,3.83-2.07,7.9-2.07,12.19v70.15h-26.22V384.32z"/>
	<path class="st0" d="M2043.74,497.02c0,17.94-5.02,31.32-15.07,40.13c-10.04,8.82-24.5,13.23-43.35,13.23
		c-5.98,0-12-0.62-18.06-1.84c-6.06-1.23-11.58-3.3-16.56-6.21c-4.98-2.91-9.16-6.75-12.54-11.5c-3.37-4.75-5.37-10.58-5.98-17.48
		h26.22c0.77,3.68,2.07,6.67,3.91,8.97s4.02,4.1,6.55,5.41c2.53,1.3,5.33,2.15,8.39,2.53c3.07,0.38,6.29,0.57,9.66,0.57
		c10.58,0,18.32-2.61,23.23-7.82c4.91-5.21,7.36-12.73,7.36-22.54V482.3h-0.46c-3.68,6.59-8.7,11.73-15.06,15.41
		c-6.36,3.68-13.23,5.52-20.58,5.52c-9.51,0-17.59-1.65-24.27-4.95c-6.67-3.29-12.19-7.82-16.56-13.57s-7.55-12.38-9.54-19.9
		c-1.99-7.51-2.99-15.56-2.99-24.15c0-7.97,1.23-15.56,3.68-22.77c2.45-7.21,5.98-13.53,10.58-18.97c4.6-5.44,10.24-9.78,16.91-13
		s14.22-4.83,22.66-4.83c7.51,0,14.41,1.57,20.7,4.71c6.29,3.14,11.12,8.09,14.49,14.83h0.46v-16.33h26.22V497.02z M1985.55,482.53
		c5.83,0,10.77-1.19,14.83-3.56c4.06-2.38,7.36-5.52,9.89-9.43c2.53-3.91,4.37-8.36,5.52-13.34c1.15-4.98,1.72-10,1.72-15.06
		c0-5.06-0.61-9.97-1.84-14.72c-1.23-4.75-3.1-8.97-5.63-12.65s-5.83-6.59-9.89-8.74c-4.06-2.15-8.93-3.22-14.61-3.22
		c-5.83,0-10.73,1.23-14.72,3.68c-3.99,2.46-7.21,5.63-9.66,9.54c-2.45,3.91-4.22,8.36-5.29,13.34c-1.07,4.99-1.61,9.93-1.61,14.83
		c0,4.91,0.61,9.7,1.84,14.38c1.23,4.68,3.1,8.86,5.63,12.54s5.75,6.67,9.66,8.97C1975.32,481.38,1980.03,482.53,1985.55,482.53z"/>
	<path class="st0" d="M2137.81,339.01h28.75v139.38h83.49v24.84h-112.24V339.01z"/>
	<path class="st0" d="M2365.74,476.78c0,3.22,0.42,5.52,1.27,6.9c0.84,1.38,2.49,2.07,4.94,2.07c0.77,0,1.69,0,2.76,0
		c1.07,0,2.3-0.15,3.68-0.46v18.17c-0.92,0.3-2.11,0.65-3.57,1.03c-1.46,0.38-2.95,0.73-4.48,1.04c-1.54,0.31-3.07,0.54-4.6,0.69
		c-1.53,0.15-2.84,0.23-3.91,0.23c-5.37,0-9.82-1.07-13.34-3.22c-3.53-2.15-5.83-5.9-6.9-11.27c-5.21,5.06-11.62,8.74-19.21,11.04
		c-7.59,2.3-14.91,3.45-21.96,3.45c-5.37,0-10.5-0.73-15.41-2.18c-4.91-1.46-9.24-3.6-13-6.44c-3.76-2.83-6.75-6.44-8.97-10.81
		c-2.22-4.37-3.33-9.47-3.33-15.29c0-7.36,1.34-13.34,4.02-17.94c2.68-4.6,6.21-8.2,10.58-10.81c4.37-2.61,9.28-4.49,14.72-5.63
		c5.44-1.15,10.93-2.03,16.45-2.65c4.75-0.92,9.28-1.57,13.57-1.96c4.29-0.38,8.09-1.03,11.38-1.96c3.3-0.92,5.9-2.34,7.82-4.25
		c1.92-1.92,2.88-4.79,2.88-8.62c0-3.37-0.81-6.13-2.42-8.28c-1.61-2.15-3.6-3.79-5.98-4.95c-2.38-1.15-5.02-1.92-7.93-2.3
		c-2.92-0.38-5.67-0.58-8.28-0.58c-7.36,0-13.42,1.53-18.17,4.6c-4.75,3.07-7.44,7.82-8.05,14.26h-26.22
		c0.46-7.67,2.3-14.03,5.52-19.09c3.22-5.06,7.32-9.12,12.3-12.19c4.98-3.07,10.62-5.21,16.91-6.44c6.29-1.23,12.73-1.84,19.32-1.84
		c5.83,0,11.58,0.61,17.25,1.84c5.67,1.23,10.77,3.22,15.29,5.98c4.52,2.76,8.17,6.33,10.92,10.69c2.76,4.37,4.14,9.7,4.14,15.99
		V476.78z M2339.52,443.66c-3.99,2.61-8.89,4.18-14.72,4.71c-5.83,0.54-11.65,1.34-17.48,2.42c-2.76,0.46-5.44,1.11-8.05,1.96
		c-2.61,0.84-4.91,2-6.9,3.45c-1.99,1.46-3.56,3.38-4.71,5.75c-1.15,2.38-1.72,5.25-1.72,8.62c0,2.92,0.84,5.37,2.53,7.36
		c1.69,1.99,3.72,3.56,6.09,4.71c2.38,1.15,4.98,1.96,7.82,2.42c2.83,0.46,5.4,0.69,7.71,0.69c2.91,0,6.05-0.38,9.43-1.15
		c3.37-0.77,6.55-2.07,9.54-3.91s5.48-4.18,7.47-7.01c1.99-2.84,2.99-6.33,2.99-10.46V443.66z"/>
	<path class="st0" d="M2394.72,339.01h26.22v60.72h0.46c1.84-2.91,4.06-5.52,6.67-7.82c2.61-2.3,5.48-4.26,8.62-5.87
		c3.14-1.61,6.44-2.84,9.89-3.68c3.45-0.84,6.86-1.26,10.23-1.26c9.35,0,17.52,1.65,24.5,4.95c6.98,3.3,12.76,7.82,17.37,13.57
		c4.6,5.75,8.05,12.46,10.35,20.12c2.3,7.67,3.45,15.87,3.45,24.61c0,7.97-1.04,15.72-3.11,23.23c-2.07,7.51-5.21,14.15-9.43,19.9
		c-4.22,5.75-9.54,10.35-15.98,13.8c-6.44,3.45-14.03,5.17-22.77,5.17c-3.99,0-8.01-0.27-12.08-0.8c-4.06-0.54-7.93-1.57-11.62-3.11
		c-3.68-1.53-7.01-3.53-10-5.98c-2.99-2.45-5.48-5.67-7.47-9.66h-0.46v16.33h-24.84V339.01z M2486.26,443.89
		c0-5.37-0.69-10.58-2.07-15.64c-1.38-5.06-3.45-9.54-6.21-13.46s-6.21-7.05-10.35-9.43c-4.14-2.38-8.89-3.56-14.26-3.56
		c-11.04,0-19.36,3.83-24.96,11.5c-5.6,7.67-8.39,17.86-8.39,30.59c0,5.98,0.73,11.54,2.18,16.67c1.46,5.14,3.64,9.54,6.56,13.22
		c2.91,3.68,6.4,6.59,10.46,8.74c4.06,2.15,8.78,3.22,14.14,3.22c5.98,0,11.04-1.22,15.18-3.68c4.14-2.45,7.55-5.63,10.23-9.54
		c2.68-3.91,4.6-8.36,5.75-13.34C2485.68,454.21,2486.26,449.11,2486.26,443.89z"/>
</g>
</svg>
