<?xml version="1.0" encoding="utf-8"?>
<!-- Generator: Adobe Illustrator 28.2.0, SVG Export Plug-In . SVG Version: 6.00 Build 0)  -->
<svg version="1.1" id="Ebene_1" xmlns="http://www.w3.org/2000/svg" xmlns:xlink="http://www.w3.org/1999/xlink" x="0px" y="0px"
	 viewBox="0 0 2600.42 651.97" style="enable-background:new 0 0 2600.42 651.97;" xml:space="preserve">
<style type="text/css">
	.st0{fill:#044F9E;}
	.st1{fill:#FFFFFF;}
	.st2{fill:#E3E3E2;}
	.st3{fill:#FBBA0A;}
	.st4{fill:#020203;}
	.st5{fill:#FEFEFE;}
	.st6{fill:#1C0E1D;}
</style>
<g>
	<circle class="st0" cx="325.46" cy="326.51" r="261.68"/>
	<path class="st1" d="M467.6,447.99c2.86-11.58,8.23-21.7,16.14-30.33c3.14-4.85,6.79-9.19,10.93-13.03
		c0.19-0.82,0.4-1.63,0.58-2.45c0.14-2.53,0.24-5.07,0.25-7.61c0.07-16.72,4.75-32.11,12.85-45.85l-4.48-14.86l10.12-3.05
		l19.49-33.67l-9.22-30.57l-9.22-30.57l-34.85-17.28l-10.12,3.05l-10.52-34.9l-125.9-44.47l-63.51,19.15l-1.48-4.9l19.26-12.46
		l-26.43-11.31l-3.65-12.11c9.73-3.99,17.41-11.2,22.1-19.95c5.34-9.93,6.89-21.98,3.37-33.63c-3.51-11.65-11.46-20.84-21.4-26.16
		c-9.93-5.34-21.98-6.89-33.63-3.37c-11.65,3.51-20.84,11.46-26.16,21.4c-5.34,9.93-6.89,21.98-3.37,33.63
		c3.51,11.65,11.46,20.84,21.4,26.16c8.28,4.45,18.03,6.26,27.8,4.7l5.09,16.89l13.11,5.61l-9.56,6.18l3.71,12.29l-61.92,18.67
		l-80.34,106.65l10.52,34.9l-10.12,3.05l-19.49,33.67l9.22,30.57l9.22,30.57l34.85,17.28l10.12-3.05l4.96,16.43l0.12,0.29
		c0.2,0.49,2.62,6.41,8.75,14.31c4.6,5.92,11.3,12.96,20.69,19.58c14.08,9.94,34.21,18.88,61.92,21.83
		c27.72,2.96,62.96,0,107.62-13.46c39.7-11.97,68.6-26.74,89.61-42.37c3.05-2.27,5.93-4.55,8.65-6.85L467.6,447.99z"/>
	<g>
		<path class="st2" d="M333.47,149.93l-65.39,19.71l-65.38,19.71l-76.74,101.88l48.13,159.64c0,0,20.34,50.86,101.72,52.21
			c-50.96-12.77-64.89-47.64-64.89-47.64l-48.13-159.64l76.74-101.88l65.38-19.71c0,0,35.9-10.82,52.51-15.83L333.47,149.93"/>
		<polyline class="st3" points="195.28,199.23 248.75,225.42 281.89,215.43 315.03,205.44 345.12,154.06 		"/>
		<polygon class="st4" points="272.8,170.37 268.66,156.64 287.92,144.17 261.49,132.86 254.04,108.14 244.21,111.11 253.05,140.41 
			266.16,146.03 256.61,152.21 262.97,173.34 272.8,170.37 		"/>
		<polygon class="st4" points="192.12,205.67 248.12,233.1 283.96,222.29 319.8,211.49 351.31,157.68 338.94,150.43 310.27,199.39 
			279.82,208.57 249.38,217.75 198.43,192.8 192.12,205.67 		"/>
		<polyline class="st4" points="169.23,434.74 152.25,439.86 117.39,422.58 108.18,392.01 98.96,361.44 118.45,327.77 
			135.44,322.65 		"/>
		<path class="st4" d="M364.35,488.92l2.07,6.86c39.7-11.97,68.6-26.74,89.61-42.37c15.76-11.72,27.06-23.93,35.06-35.69
			c12.02-17.65,16.57-34.25,18.02-46.47c1.46-12.23-0.12-20.09-0.24-20.67l-0.06-0.31l-49.27-163.42l-125.9-44.47l-67.63,20.39
			l-67.63,20.39l-80.34,106.65l49.27,163.42l0.12,0.29c0.2,0.49,2.62,6.41,8.75,14.31c4.6,5.92,11.3,12.96,20.69,19.58
			c14.08,9.94,34.21,18.88,61.92,21.83c27.72,2.96,62.96,0,107.62-13.46L364.35,488.92l-2.07-6.86
			c-38.43,11.59-69.02,14.94-93.19,13.63c-18.13-0.98-32.66-4.57-44.31-9.32c-17.45-7.13-28.48-16.88-35.2-24.77
			c-3.36-3.95-5.62-7.43-7.02-9.86c-0.7-1.21-1.18-2.17-1.48-2.78c-0.15-0.31-0.25-0.53-0.3-0.66l-0.05-0.12l0-0.01l-2.89,1.18
			l2.9-1.17l0-0.01l-2.89,1.18l2.9-1.17l-4.39,1.77l4.4-1.77l0,0l-4.39,1.77l4.4-1.77l0,0l-6.47,2.6l6.47-2.59l-0.01-0.02l-6.47,2.6
			l6.47-2.59l-6.66,2.66l6.86-2.07l-47.08-156.16l73.14-97.1l63.14-19.04l63.14-19.04l114.63,40.49L495,354.12l6.86-2.07l-7.02,1.46
			l5.84-1.22l-5.85,1.2l0,0.02l5.84-1.22l-5.85,1.2l0.15-0.03l-0.15,0.03l0,0l0.15-0.03l-0.15,0.03c0.06,0.32,1.05,5.73,0.23,14.28
			c-0.61,6.41-2.23,14.58-6.01,23.77c-5.68,13.78-16.17,29.89-35.83,45.9c-19.66,15.99-48.56,31.85-90.95,44.63L364.35,488.92z"/>
		<polyline class="st4" points="497,335.92 513.99,330.8 533.48,297.13 524.26,266.56 515.05,235.99 480.19,218.71 463.21,223.83 		
			"/>
		<path class="st1" d="M454.95,453.31l-10.12-19.92c-4.54-8.94-1-19.88,7.92-24.45c8.72-4.47,19.41-1.25,24.2,7.3l27.73,49.5"/>
		<path class="st4" d="M461.35,450.07l-10.12-19.92c-0.31-0.6-0.55-1.22-0.74-1.83c-0.75-2.49-0.57-5.12,0.4-7.45
			c0.98-2.33,2.71-4.3,5.14-5.55c0.62-0.32,1.24-0.57,1.87-0.76c2.42-0.73,4.98-0.59,7.26,0.32c2.29,0.92,4.24,2.55,5.54,4.86
			l27.73,49.5l12.51-7.01l-27.73-49.5c-2.94-5.25-7.53-9.1-12.75-11.17c-5.21-2.08-11.1-2.42-16.7-0.73
			c-1.45,0.44-2.89,1.01-4.27,1.73c-5.51,2.82-9.6,7.45-11.82,12.76c-2.23,5.31-2.65,11.36-0.91,17.13
			c0.43,1.42,0.99,2.83,1.68,4.19l10.12,19.92L461.35,450.07L461.35,450.07z"/>
		<path class="st1" d="M441.81,513.48l-79.5-38.86c-8.99-4.4-12.74-15.27-8.35-24.29c2.8-5.8,8.33-9.47,14.32-10.15
			c3.09-0.35,6.35,0.09,9.41,1.44l68.46,29.99"/>
		<path class="st4" d="M444.96,507.04l-79.5-38.86c-1.44-0.71-2.64-1.67-3.6-2.81c-0.96-1.14-1.67-2.48-2.1-3.9
			c-0.77-2.58-0.63-5.38,0.64-8l0.01-0.02c0.7-1.45,1.66-2.65,2.81-3.62c1.15-0.97,2.5-1.69,3.93-2.12c0.63-0.19,1.28-0.32,1.94-0.4
			c1.86-0.21,3.83,0.05,5.7,0.88l68.48,30l5.75-13.13l-68.46-29.99l0.02,0.01c-4.24-1.87-8.78-2.5-13.11-2.01
			c-1.51,0.17-3,0.48-4.45,0.92c-3.28,0.99-6.35,2.64-9.01,4.87c-2.66,2.23-4.91,5.07-6.5,8.37l0.01-0.02
			c-2.9,5.95-3.26,12.55-1.48,18.42c0.98,3.25,2.61,6.31,4.83,8.96c2.21,2.65,5.02,4.89,8.3,6.5l79.5,38.86L444.96,507.04
			L444.96,507.04z"/>
		<path class="st3" d="M464.44,455.68l86.68,21.66c7.24,1.81,11.93,8.81,10.84,16.19l-9.08,61.87c-1.07,7.29-7.43,12.62-14.79,12.4
			l-86.02-2.57c-8.43-0.25-14.88-7.62-14.01-16.01l8.41-80.97C447.4,459.48,455.88,453.54,464.44,455.68z"/>
		<path class="st4" d="M464.44,455.68l-1.74,6.95l86.68,21.66c1.31,0.33,2.42,0.97,3.32,1.84c0.9,0.87,1.57,1.97,1.94,3.17
			c0.3,1,0.39,2.07,0.23,3.18l-9.08,61.87c-0.22,1.46-0.83,2.72-1.73,3.76c-0.9,1.03-2.09,1.81-3.42,2.21
			c-0.74,0.22-1.52,0.33-2.34,0.31l-86.02-2.57c-1.66-0.05-3.1-0.62-4.3-1.55c-1.19-0.93-2.09-2.23-2.53-3.68
			c-0.27-0.9-0.37-1.85-0.27-2.87l8.41-80.97c0.17-1.57,0.77-2.89,1.69-3.98c0.92-1.08,2.16-1.9,3.52-2.31
			c1.22-0.36,2.51-0.42,3.89-0.08L464.44,455.68l1.74-6.95c-3.92-0.98-7.9-0.82-11.5,0.27c-4.03,1.22-7.61,3.57-10.32,6.77
			c-2.71,3.19-4.55,7.27-5.01,11.76l-8.41,80.97c-0.31,2.93-0.01,5.82,0.8,8.5c1.31,4.33,3.92,8.1,7.42,10.84
			c3.49,2.74,7.92,4.44,12.7,4.58l86.02,2.57c2.38,0.07,4.71-0.25,6.91-0.91c3.94-1.19,7.41-3.46,10.07-6.5
			c2.66-3.04,4.5-6.87,5.12-11.12l9.08-61.87c0.47-3.23,0.21-6.44-0.69-9.4c-1.07-3.56-3.04-6.77-5.69-9.34
			c-2.65-2.57-6.02-4.5-9.82-5.45l-86.68-21.66L464.44,455.68z"/>
		
			<ellipse transform="matrix(0.0254 -0.9997 0.9997 0.0254 20.0467 1067.6288)" class="st1" cx="557.57" cy="523.53" rx="23.45" ry="23.45"/>
		<path class="st4" d="M580.87,520.88l-7.12,0.81c0.45,4-0.56,7.75-2.62,10.85c-2.06,3.1-5.15,5.46-8.84,6.57
			c-0.92,0.28-1.88,0.48-2.89,0.59c-4,0.45-7.75-0.56-10.85-2.62c-3.1-2.06-5.47-5.15-6.57-8.84c-0.28-0.92-0.48-1.88-0.59-2.88
			c-0.45-4,0.56-7.75,2.62-10.86c2.06-3.1,5.15-5.46,8.84-6.57c0.92-0.28,1.88-0.48,2.89-0.59c4-0.45,7.75,0.56,10.86,2.62
			c3.1,2.06,5.46,5.15,6.57,8.84c0.28,0.92,0.48,1.88,0.59,2.89L580.87,520.88l7.12-0.81c-0.21-1.86-0.59-3.66-1.11-5.4
			c-2.1-6.97-6.57-12.78-12.36-16.63c-5.78-3.86-12.98-5.78-20.42-4.93c-1.86,0.21-3.67,0.59-5.4,1.11
			c-6.97,2.1-12.78,6.57-16.63,12.36c-3.86,5.78-5.78,12.98-4.93,20.42c0.21,1.86,0.59,3.67,1.11,5.4
			c2.1,6.97,6.57,12.78,12.36,16.63c5.78,3.86,12.98,5.78,20.42,4.93c1.86-0.21,3.66-0.59,5.4-1.11c6.97-2.1,12.78-6.56,16.63-12.36
			c3.86-5.78,5.78-12.98,4.93-20.42L580.87,520.88z"/>
		<path class="st4" d="M276.45,69.25l-6.86,2.07c2.38,7.91,1.34,15.96-2.28,22.71c-3.63,6.74-9.76,12.06-17.67,14.45
			c-7.91,2.38-15.96,1.34-22.71-2.28c-6.74-3.63-12.06-9.76-14.45-17.67c-2.38-7.91-1.34-15.96,2.28-22.71
			c3.63-6.74,9.76-12.06,17.67-14.45c7.91-2.38,15.96-1.34,22.71,2.28c6.74,3.63,12.06,9.76,14.45,17.67L276.45,69.25l6.86-2.07
			c-3.51-11.65-11.46-20.84-21.4-26.16c-9.93-5.34-21.98-6.89-33.63-3.37c-11.65,3.51-20.84,11.46-26.16,21.4
			c-5.34,9.93-6.89,21.98-3.37,33.63c3.51,11.65,11.46,20.84,21.4,26.16c9.93,5.34,21.98,6.89,33.63,3.37
			c11.65-3.51,20.84-11.46,26.16-21.4c5.34-9.93,6.89-21.98,3.37-33.63L276.45,69.25z"/>
		
			<ellipse transform="matrix(0.6627 -0.7489 0.7489 0.6627 -178.1029 303.4637)" class="st4" cx="247.82" cy="349.44" rx="48.55" ry="48.55"/>
		<g>
			<path class="st1" d="M360.95,401.73c-8.61,4.06-14,12.16-15.05,20.96c7.69,1.33,15.85,0.4,23.44-3.19
				c7.59-3.58,13.5-9.29,17.36-16.07C379.24,398.65,369.56,397.67,360.95,401.73z"/>
		</g>
		<circle class="st5" cx="259.3" cy="330.21" r="17.99"/>
		
			<ellipse transform="matrix(0.9574 -0.2887 0.2887 0.9574 -66.1047 126.4514)" class="st4" cx="395.69" cy="287.36" rx="48.55" ry="48.55"/>
		<path class="st5" d="M424.4,262.93c2.87,9.51-2.52,19.55-12.03,22.42s-19.55-2.52-22.42-12.03c-2.87-9.52,2.52-19.55,12.03-22.42
			S421.53,253.42,424.4,262.93z"/>
		<polygon class="st6" points="305.27,434.43 358.79,402.97 396.78,408.4 409.71,395.22 402.38,388.03 393.09,397.5 356.69,392.3 
			300.07,425.58 305.27,434.43 		"/>
	</g>
</g>
<g>
	<path d="M680.78,119.01h78.43c18.09,0,31.66,3.91,40.71,11.73c9.05,7.82,13.57,18.71,13.57,32.66c0,7.82-1.15,14.3-3.45,19.44
		c-2.3,5.14-4.98,9.28-8.05,12.42c-3.07,3.14-6.09,5.41-9.08,6.79c-2.99,1.38-5.17,2.3-6.56,2.76v0.46c2.45,0.31,5.1,1.07,7.94,2.3
		c2.84,1.23,5.48,3.18,7.94,5.86c2.45,2.68,4.48,6.17,6.1,10.47c1.61,4.29,2.42,9.66,2.42,16.1c0,9.66,0.73,18.44,2.19,26.34
		c1.46,7.9,3.72,13.53,6.78,16.9h-30.82c-2.15-3.53-3.41-7.44-3.79-11.73c-0.38-4.29-0.58-8.43-0.58-12.42
		c0-7.51-0.46-13.99-1.38-19.44c-0.92-5.44-2.61-9.97-5.06-13.57c-2.45-3.6-5.79-6.25-10-7.94c-4.22-1.69-9.62-2.53-16.22-2.53
		h-42.32v67.62h-28.75V119.01z M709.53,193.76h47.15c9.2,0,16.18-2.18,20.93-6.55c4.75-4.37,7.13-10.93,7.13-19.67
		c0-5.21-0.77-9.47-2.3-12.77c-1.53-3.3-3.64-5.86-6.33-7.71c-2.68-1.84-5.75-3.07-9.2-3.68c-3.45-0.61-7.02-0.92-10.7-0.92h-46.69
		V193.76z"/>
	<path d="M893.53,286.45c-9.51,0-17.98-1.57-25.42-4.72c-7.44-3.14-13.72-7.48-18.86-13c-5.14-5.52-9.05-12.11-11.73-19.78
		c-2.68-7.67-4.03-16.1-4.03-25.3c0-9.05,1.34-17.4,4.03-25.07c2.68-7.67,6.59-14.26,11.73-19.78c5.14-5.52,11.42-9.85,18.86-13
		c7.44-3.14,15.91-4.71,25.42-4.71c9.51,0,17.98,1.57,25.42,4.71c7.44,3.14,13.72,7.48,18.86,13c5.14,5.52,9.05,12.11,11.73,19.78
		c2.68,7.67,4.02,16.02,4.02,25.07c0,9.2-1.34,17.63-4.02,25.3c-2.68,7.67-6.59,14.26-11.73,19.78c-5.14,5.52-11.42,9.85-18.86,13
		C911.5,284.88,903.03,286.45,893.53,286.45z M893.53,265.75c5.83,0,10.89-1.23,15.18-3.68c4.29-2.45,7.82-5.67,10.58-9.66
		c2.76-3.99,4.79-8.47,6.1-13.46c1.3-4.98,1.96-10.08,1.96-15.29c0-5.06-0.65-10.12-1.96-15.18c-1.3-5.06-3.33-9.54-6.1-13.46
		c-2.76-3.91-6.29-7.09-10.58-9.54c-4.29-2.45-9.35-3.68-15.18-3.68c-5.83,0-10.89,1.23-15.18,3.68c-4.29,2.45-7.82,5.63-10.58,9.54
		c-2.76,3.91-4.79,8.4-6.09,13.46c-1.3,5.06-1.96,10.12-1.96,15.18c0,5.21,0.65,10.31,1.96,15.29c1.3,4.98,3.33,9.47,6.09,13.46
		c2.76,3.99,6.29,7.21,10.58,9.66C882.64,264.53,887.7,265.75,893.53,265.75z"/>
	<path d="M976.09,119.01h26.22v60.72h0.46c1.84-2.91,4.06-5.52,6.67-7.82c2.61-2.3,5.48-4.26,8.62-5.87
		c3.14-1.61,6.44-2.84,9.89-3.68c3.45-0.84,6.86-1.26,10.23-1.26c9.35,0,17.52,1.65,24.5,4.94c6.98,3.3,12.77,7.82,17.37,13.57
		c4.6,5.75,8.05,12.46,10.35,20.12c2.3,7.67,3.45,15.87,3.45,24.61c0,7.97-1.04,15.72-3.1,23.23c-2.07,7.51-5.21,14.15-9.43,19.9
		c-4.22,5.75-9.54,10.35-15.98,13.8c-6.44,3.45-14.03,5.18-22.77,5.18c-3.99,0-8.01-0.27-12.08-0.81c-4.06-0.54-7.93-1.57-11.61-3.1
		s-7.02-3.53-10-5.98c-2.99-2.45-5.48-5.67-7.48-9.66h-0.46v16.33h-24.84V119.01z M1067.63,223.89c0-5.37-0.69-10.58-2.07-15.64
		s-3.45-9.54-6.21-13.46s-6.21-7.05-10.35-9.43c-4.14-2.38-8.89-3.56-14.26-3.56c-11.04,0-19.36,3.83-24.96,11.5
		c-5.6,7.67-8.4,17.86-8.4,30.59c0,5.98,0.73,11.54,2.19,16.67c1.46,5.14,3.64,9.54,6.55,13.23c2.91,3.68,6.4,6.59,10.47,8.74
		c4.06,2.15,8.78,3.22,14.15,3.22c5.98,0,11.04-1.23,15.18-3.68c4.14-2.45,7.55-5.63,10.24-9.54c2.68-3.91,4.6-8.36,5.75-13.34
		C1067.06,234.21,1067.63,229.11,1067.63,223.89z"/>
	<path d="M1170.44,286.45c-9.51,0-17.98-1.57-25.42-4.72c-7.44-3.14-13.72-7.48-18.86-13c-5.14-5.52-9.05-12.11-11.73-19.78
		c-2.68-7.67-4.03-16.1-4.03-25.3c0-9.05,1.34-17.4,4.03-25.07c2.68-7.67,6.59-14.26,11.73-19.78c5.14-5.52,11.42-9.85,18.86-13
		c7.44-3.14,15.91-4.71,25.42-4.71c9.51,0,17.98,1.57,25.42,4.71c7.44,3.14,13.72,7.48,18.86,13c5.14,5.52,9.05,12.11,11.73,19.78
		c2.68,7.67,4.02,16.02,4.02,25.07c0,9.2-1.34,17.63-4.02,25.3c-2.68,7.67-6.59,14.26-11.73,19.78c-5.14,5.52-11.42,9.85-18.86,13
		C1188.42,284.88,1179.95,286.45,1170.44,286.45z M1170.44,265.75c5.83,0,10.89-1.23,15.18-3.68c4.29-2.45,7.82-5.67,10.58-9.66
		c2.76-3.99,4.79-8.47,6.1-13.46c1.3-4.98,1.96-10.08,1.96-15.29c0-5.06-0.65-10.12-1.96-15.18c-1.3-5.06-3.33-9.54-6.1-13.46
		c-2.76-3.91-6.29-7.09-10.58-9.54c-4.29-2.45-9.35-3.68-15.18-3.68c-5.83,0-10.89,1.23-15.18,3.68c-4.29,2.45-7.82,5.63-10.58,9.54
		c-2.76,3.91-4.79,8.4-6.09,13.46c-1.3,5.06-1.96,10.12-1.96,15.18c0,5.21,0.65,10.31,1.96,15.29c1.3,4.98,3.33,9.47,6.09,13.46
		c2.76,3.99,6.29,7.21,10.58,9.66C1159.55,264.53,1164.61,265.75,1170.44,265.75z"/>
	<path d="M1240.36,164.32h19.78v-35.65h26.22v35.65h23.69v19.55h-23.69v63.48c0,2.76,0.12,5.14,0.35,7.13
		c0.23,1.99,0.77,3.68,1.61,5.06c0.84,1.38,2.11,2.42,3.79,3.1c1.69,0.69,3.99,1.04,6.9,1.04c1.84,0,3.68-0.04,5.52-0.12
		c1.84-0.08,3.68-0.34,5.52-0.81V283c-2.91,0.31-5.75,0.61-8.51,0.92c-2.76,0.31-5.6,0.46-8.51,0.46c-6.9,0-12.46-0.65-16.67-1.96
		c-4.22-1.3-7.51-3.22-9.89-5.75c-2.38-2.53-3.99-5.71-4.83-9.54c-0.84-3.83-1.34-8.2-1.5-13.11v-70.15h-19.78V164.32z"/>
	<path d="M1396.53,119.01h72.45c11.65,0,21.16,1.69,28.52,5.06c7.36,3.37,13.03,7.59,17.02,12.65c3.99,5.06,6.71,10.58,8.16,16.56
		c1.46,5.98,2.19,11.5,2.19,16.56s-0.73,10.54-2.19,16.45c-1.46,5.9-4.18,11.38-8.16,16.44c-3.99,5.06-9.66,9.24-17.02,12.54
		c-7.36,3.3-16.87,4.94-28.52,4.94h-43.7v63.02h-28.75V119.01z M1425.28,196.75h42.09c3.22,0,6.52-0.46,9.89-1.38
		c3.37-0.92,6.48-2.42,9.31-4.49c2.84-2.07,5.14-4.83,6.9-8.28c1.76-3.45,2.65-7.78,2.65-13c0-5.37-0.77-9.81-2.3-13.34
		c-1.53-3.53-3.6-6.33-6.21-8.4c-2.61-2.07-5.6-3.49-8.97-4.25c-3.37-0.77-6.98-1.15-10.81-1.15h-42.55V196.75z"/>
	<path d="M1566.73,230.56c0,4.6,0.65,9.05,1.96,13.34c1.3,4.29,3.26,8.05,5.86,11.27c2.61,3.22,5.9,5.79,9.89,7.71
		c3.99,1.92,8.74,2.88,14.26,2.88c7.67,0,13.84-1.65,18.51-4.94c4.68-3.3,8.17-8.24,10.46-14.83h24.84
		c-1.38,6.44-3.76,12.19-7.13,17.25c-3.37,5.06-7.44,9.31-12.19,12.76c-4.75,3.45-10.08,6.06-15.99,7.82
		c-5.9,1.76-12.08,2.65-18.51,2.65c-9.35,0-17.63-1.53-24.84-4.6c-7.21-3.07-13.3-7.36-18.28-12.88
		c-4.98-5.52-8.74-12.11-11.27-19.78c-2.53-7.67-3.8-16.1-3.8-25.3c0-8.43,1.34-16.45,4.03-24.04c2.68-7.59,6.52-14.26,11.5-20.01
		c4.98-5.75,11-10.31,18.05-13.69c7.05-3.37,15.03-5.06,23.92-5.06c9.35,0,17.75,1.96,25.19,5.86c7.44,3.91,13.61,9.08,18.51,15.52
		c4.91,6.44,8.47,13.84,10.7,22.2c2.22,8.36,2.8,16.98,1.72,25.88H1566.73z M1627.91,213.31c-0.31-4.14-1.19-8.13-2.65-11.96
		c-1.46-3.83-3.45-7.17-5.98-10c-2.53-2.84-5.6-5.14-9.2-6.9c-3.6-1.76-7.63-2.65-12.08-2.65c-4.6,0-8.78,0.81-12.53,2.42
		c-3.76,1.61-6.98,3.83-9.66,6.67c-2.68,2.84-4.83,6.17-6.44,10.01c-1.61,3.83-2.49,7.97-2.65,12.42H1627.91z"/>
	<path d="M1674.14,164.32h24.61v23h0.46c0.77-3.22,2.26-6.36,4.49-9.43c2.22-3.07,4.91-5.87,8.05-8.4c3.14-2.53,6.63-4.56,10.46-6.1
		c3.83-1.53,7.74-2.3,11.73-2.3c3.07,0,5.18,0.08,6.33,0.23c1.15,0.15,2.34,0.31,3.57,0.46v25.3c-1.84-0.31-3.72-0.57-5.63-0.8
		c-1.92-0.23-3.8-0.35-5.64-0.35c-4.45,0-8.62,0.88-12.54,2.65c-3.91,1.76-7.32,4.37-10.23,7.82c-2.92,3.45-5.21,7.71-6.9,12.77
		c-1.69,5.06-2.53,10.89-2.53,17.48v56.58h-26.22V164.32z"/>
	<path d="M1831.23,204.11c-1.08-7.36-4.03-12.92-8.86-16.67c-4.83-3.76-10.92-5.64-18.29-5.64c-3.37,0-6.98,0.58-10.81,1.73
		c-3.83,1.15-7.36,3.3-10.58,6.44c-3.22,3.14-5.9,7.51-8.05,13.11c-2.15,5.6-3.22,12.92-3.22,21.96c0,4.91,0.58,9.81,1.73,14.72
		c1.15,4.91,2.99,9.28,5.52,13.11c2.53,3.83,5.79,6.94,9.78,9.31c3.99,2.38,8.82,3.56,14.49,3.56c7.67,0,13.99-2.38,18.97-7.13
		c4.98-4.75,8.09-11.42,9.32-20.01h26.22c-2.45,15.49-8.32,27.33-17.59,35.54c-9.28,8.2-21.58,12.31-36.92,12.31
		c-9.35,0-17.6-1.57-24.73-4.72c-7.13-3.14-13.15-7.44-18.05-12.88c-4.91-5.44-8.62-11.92-11.16-19.44
		c-2.53-7.51-3.79-15.64-3.79-24.38c0-8.89,1.23-17.25,3.68-25.07c2.45-7.82,6.13-14.61,11.04-20.36c4.91-5.75,11-10.27,18.29-13.57
		c7.28-3.3,15.83-4.94,25.65-4.94c6.9,0,13.46,0.88,19.67,2.65c6.21,1.76,11.73,4.41,16.56,7.94c4.83,3.53,8.78,7.97,11.84,13.34
		c3.07,5.37,4.91,11.73,5.52,19.09H1831.23z"/>
	<path d="M1899.31,230.56c0,4.6,0.65,9.05,1.96,13.34c1.3,4.29,3.26,8.05,5.87,11.27c2.61,3.22,5.9,5.79,9.89,7.71
		c3.99,1.92,8.74,2.88,14.26,2.88c7.67,0,13.84-1.65,18.51-4.94c4.68-3.3,8.17-8.24,10.46-14.83h24.84
		c-1.38,6.44-3.76,12.19-7.13,17.25c-3.37,5.06-7.44,9.31-12.19,12.76c-4.75,3.45-10.08,6.06-15.99,7.82
		c-5.9,1.76-12.08,2.65-18.51,2.65c-9.35,0-17.63-1.53-24.84-4.6c-7.21-3.07-13.3-7.36-18.29-12.88
		c-4.98-5.52-8.74-12.11-11.27-19.78c-2.53-7.67-3.79-16.1-3.79-25.3c0-8.43,1.34-16.45,4.03-24.04c2.68-7.59,6.52-14.26,11.5-20.01
		c4.98-5.75,11-10.31,18.05-13.69c7.05-3.37,15.03-5.06,23.92-5.06c9.35,0,17.75,1.96,25.19,5.86c7.44,3.91,13.61,9.08,18.51,15.52
		c4.91,6.44,8.47,13.84,10.7,22.2c2.22,8.36,2.8,16.98,1.72,25.88H1899.31z M1960.49,213.31c-0.31-4.14-1.19-8.13-2.65-11.96
		c-1.46-3.83-3.45-7.17-5.98-10c-2.53-2.84-5.6-5.14-9.2-6.9c-3.6-1.76-7.63-2.65-12.08-2.65c-4.6,0-8.78,0.81-12.54,2.42
		c-3.76,1.61-6.98,3.83-9.66,6.67c-2.68,2.84-4.83,6.17-6.44,10.01c-1.61,3.83-2.49,7.97-2.65,12.42H1960.49z"/>
	<path d="M2007.41,164.32h24.84v16.1h0.46c3.68-6.9,8.82-11.84,15.41-14.83c6.59-2.99,13.72-4.48,21.39-4.48
		c9.35,0,17.52,1.65,24.5,4.94c6.98,3.3,12.76,7.82,17.37,13.57c4.6,5.75,8.05,12.46,10.35,20.12c2.3,7.67,3.45,15.87,3.45,24.61
		c0,7.97-1.04,15.72-3.11,23.23c-2.07,7.51-5.21,14.15-9.43,19.9c-4.22,5.75-9.54,10.35-15.98,13.8
		c-6.44,3.45-14.03,5.18-22.77,5.18c-3.83,0-7.67-0.35-11.5-1.04c-3.83-0.69-7.51-1.8-11.04-3.33c-3.53-1.53-6.79-3.49-9.78-5.87
		c-2.99-2.38-5.48-5.17-7.47-8.4h-0.46v59.34h-26.22V164.32z M2098.95,223.89c0-5.37-0.69-10.58-2.07-15.64s-3.45-9.54-6.21-13.46
		s-6.21-7.05-10.35-9.43c-4.14-2.38-8.89-3.56-14.26-3.56c-11.04,0-19.36,3.83-24.95,11.5c-5.6,7.67-8.39,17.86-8.39,30.59
		c0,5.98,0.73,11.54,2.18,16.67c1.46,5.14,3.64,9.54,6.56,13.23c2.91,3.68,6.4,6.59,10.46,8.74c4.06,2.15,8.78,3.22,14.14,3.22
		c5.98,0,11.04-1.23,15.18-3.68c4.14-2.45,7.55-5.63,10.23-9.54c2.68-3.91,4.6-8.36,5.75-13.34
		C2098.37,234.21,2098.95,229.11,2098.95,223.89z"/>
	<path d="M2135.28,164.32h19.78v-35.65h26.22v35.65h23.69v19.55h-23.69v63.48c0,2.76,0.12,5.14,0.34,7.13
		c0.23,1.99,0.77,3.68,1.61,5.06c0.84,1.38,2.11,2.42,3.79,3.1c1.69,0.69,3.99,1.04,6.9,1.04c1.84,0,3.68-0.04,5.52-0.12
		c1.84-0.08,3.68-0.34,5.52-0.81V283c-2.92,0.31-5.75,0.61-8.51,0.92c-2.76,0.31-5.6,0.46-8.51,0.46c-6.9,0-12.46-0.65-16.67-1.96
		c-4.22-1.3-7.51-3.22-9.89-5.75c-2.38-2.53-3.99-5.71-4.83-9.54c-0.84-3.83-1.34-8.2-1.5-13.11v-70.15h-19.78V164.32z"/>
	<path d="M2224.52,119.01h26.22v24.84h-26.22V119.01z M2224.52,164.32h26.22v118.91h-26.22V164.32z"/>
	<path d="M2333.77,286.45c-9.51,0-17.98-1.57-25.42-4.72c-7.44-3.14-13.72-7.48-18.86-13c-5.14-5.52-9.05-12.11-11.73-19.78
		c-2.68-7.67-4.02-16.1-4.02-25.3c0-9.05,1.34-17.4,4.02-25.07c2.68-7.67,6.59-14.26,11.73-19.78c5.14-5.52,11.42-9.85,18.86-13
		c7.44-3.14,15.91-4.71,25.42-4.71c9.51,0,17.98,1.57,25.42,4.71c7.44,3.14,13.72,7.48,18.86,13c5.14,5.52,9.05,12.11,11.73,19.78
		c2.68,7.67,4.02,16.02,4.02,25.07c0,9.2-1.34,17.63-4.02,25.3c-2.68,7.67-6.59,14.26-11.73,19.78c-5.14,5.52-11.42,9.85-18.86,13
		C2351.75,284.88,2343.28,286.45,2333.77,286.45z M2333.77,265.75c5.83,0,10.89-1.23,15.18-3.68c4.29-2.45,7.82-5.67,10.58-9.66
		c2.76-3.99,4.79-8.47,6.09-13.46c1.3-4.98,1.96-10.08,1.96-15.29c0-5.06-0.65-10.12-1.96-15.18c-1.3-5.06-3.33-9.54-6.09-13.46
		c-2.76-3.91-6.29-7.09-10.58-9.54c-4.29-2.45-9.35-3.68-15.18-3.68c-5.83,0-10.89,1.23-15.18,3.68c-4.29,2.45-7.82,5.63-10.58,9.54
		s-4.79,8.4-6.09,13.46c-1.3,5.06-1.96,10.12-1.96,15.18c0,5.21,0.65,10.31,1.96,15.29c1.3,4.98,3.33,9.47,6.09,13.46
		c2.76,3.99,6.29,7.21,10.58,9.66C2322.88,264.53,2327.94,265.75,2333.77,265.75z"/>
	<path d="M2415.65,164.32h24.84v17.48l0.46,0.46c3.99-6.59,9.2-11.77,15.64-15.52c6.44-3.76,13.57-5.63,21.39-5.63
		c13.03,0,23.31,3.37,30.82,10.12c7.51,6.75,11.27,16.87,11.27,30.36v81.65h-26.22v-74.75c-0.31-9.35-2.3-16.14-5.98-20.35
		c-3.68-4.22-9.43-6.33-17.25-6.33c-4.45,0-8.43,0.81-11.96,2.42c-3.53,1.61-6.52,3.83-8.97,6.67c-2.45,2.84-4.37,6.17-5.75,10.01
		c-1.38,3.83-2.07,7.9-2.07,12.19v70.15h-26.22V164.32z"/>
	<path d="M776.69,476.78c0,3.22,0.42,5.52,1.26,6.9c0.84,1.38,2.49,2.07,4.95,2.07c0.77,0,1.69,0,2.76,0c1.07,0,2.3-0.15,3.68-0.46
		v18.17c-0.92,0.3-2.11,0.65-3.56,1.03c-1.46,0.38-2.95,0.73-4.48,1.04c-1.53,0.31-3.07,0.54-4.6,0.69
		c-1.53,0.15-2.84,0.23-3.91,0.23c-5.37,0-9.81-1.07-13.34-3.22c-3.53-2.15-5.83-5.9-6.9-11.27c-5.21,5.06-11.62,8.74-19.21,11.04
		c-7.59,2.3-14.91,3.45-21.97,3.45c-5.37,0-10.5-0.73-15.41-2.18c-4.91-1.46-9.24-3.6-13-6.44c-3.76-2.83-6.75-6.44-8.97-10.81
		c-2.22-4.37-3.33-9.47-3.33-15.29c0-7.36,1.34-13.34,4.02-17.94c2.68-4.6,6.21-8.2,10.58-10.81c4.37-2.61,9.28-4.49,14.72-5.63
		c5.44-1.15,10.92-2.03,16.44-2.65c4.75-0.92,9.28-1.57,13.57-1.96c4.29-0.38,8.09-1.03,11.38-1.96c3.3-0.92,5.9-2.34,7.82-4.25
		c1.92-1.92,2.88-4.79,2.88-8.62c0-3.37-0.8-6.13-2.41-8.28c-1.61-2.15-3.6-3.79-5.98-4.95c-2.38-1.15-5.02-1.92-7.93-2.3
		c-2.91-0.38-5.67-0.58-8.28-0.58c-7.36,0-13.42,1.53-18.17,4.6c-4.75,3.07-7.44,7.82-8.05,14.26h-26.22
		c0.46-7.67,2.3-14.03,5.52-19.09c3.22-5.06,7.32-9.12,12.31-12.19c4.98-3.07,10.62-5.21,16.9-6.44c6.29-1.23,12.73-1.84,19.32-1.84
		c5.83,0,11.58,0.61,17.25,1.84c5.67,1.23,10.77,3.22,15.3,5.98c4.52,2.76,8.17,6.33,10.92,10.69c2.76,4.37,4.14,9.7,4.14,15.99
		V476.78z M750.47,443.66c-3.99,2.61-8.89,4.18-14.72,4.71c-5.83,0.54-11.65,1.34-17.48,2.42c-2.76,0.46-5.44,1.11-8.05,1.96
		c-2.61,0.84-4.91,2-6.9,3.45c-1.99,1.46-3.56,3.38-4.71,5.75c-1.15,2.38-1.73,5.25-1.73,8.62c0,2.92,0.84,5.37,2.53,7.36
		c1.69,1.99,3.72,3.56,6.1,4.71c2.38,1.15,4.98,1.96,7.82,2.42c2.84,0.46,5.41,0.69,7.71,0.69c2.91,0,6.06-0.38,9.43-1.15
		c3.37-0.77,6.55-2.07,9.54-3.91c2.99-1.84,5.48-4.18,7.48-7.01c1.99-2.84,2.99-6.33,2.99-10.46V443.66z"/>
	<path d="M804.98,384.32h24.84v17.48l0.46,0.46c3.99-6.59,9.2-11.77,15.64-15.53c6.44-3.75,13.57-5.63,21.39-5.63
		c13.03,0,23.31,3.38,30.82,10.12c7.51,6.75,11.27,16.87,11.27,30.36v81.65h-26.22v-74.75c-0.31-9.35-2.3-16.14-5.98-20.35
		c-3.68-4.22-9.43-6.33-17.25-6.33c-4.45,0-8.43,0.8-11.96,2.42c-3.53,1.61-6.52,3.83-8.97,6.67c-2.45,2.84-4.37,6.17-5.75,10
		c-1.38,3.83-2.07,7.9-2.07,12.19v70.15h-26.22V384.32z"/>
	<path d="M1049.01,503.23h-24.84v-16.1h-0.46c-3.53,6.9-8.66,11.84-15.41,14.83c-6.75,2.99-13.88,4.48-21.39,4.48
		c-9.35,0-17.52-1.65-24.5-4.94c-6.98-3.3-12.76-7.78-17.36-13.46c-4.6-5.67-8.05-12.38-10.35-20.12
		c-2.3-7.74-3.45-16.06-3.45-24.96c0-10.73,1.46-20.01,4.37-27.83c2.91-7.82,6.79-14.26,11.62-19.32
		c4.83-5.06,10.35-8.78,16.56-11.15c6.21-2.38,12.53-3.57,18.97-3.57c3.68,0,7.44,0.34,11.27,1.04c3.83,0.69,7.51,1.8,11.04,3.33
		c3.53,1.53,6.79,3.49,9.77,5.87c2.99,2.38,5.48,5.17,7.48,8.39h0.46v-60.72h26.22V503.23z M957.47,445.04
		c0,5.06,0.65,10.04,1.96,14.95c1.3,4.91,3.3,9.28,5.98,13.11c2.68,3.83,6.09,6.9,10.23,9.2c4.14,2.3,9.05,3.45,14.72,3.45
		c5.83,0,10.85-1.22,15.06-3.68c4.22-2.45,7.67-5.67,10.35-9.66c2.68-3.99,4.68-8.47,5.98-13.46c1.3-4.98,1.95-10.08,1.95-15.29
		c0-13.18-2.95-23.46-8.85-30.82c-5.9-7.36-13.91-11.04-24.03-11.04c-6.13,0-11.31,1.26-15.52,3.79c-4.22,2.53-7.67,5.83-10.35,9.89
		c-2.68,4.06-4.6,8.67-5.75,13.8C958.04,434.43,957.47,439.68,957.47,445.04z"/>
	<path d="M1145.14,339.01h28.75v139.38h83.49v24.84h-112.24V339.01z"/>
	<path d="M1293.95,450.56c0,4.6,0.65,9.05,1.96,13.34c1.3,4.29,3.26,8.05,5.86,11.27c2.61,3.22,5.9,5.79,9.89,7.7
		c3.99,1.92,8.74,2.88,14.26,2.88c7.67,0,13.84-1.65,18.51-4.94c4.68-3.3,8.17-8.24,10.47-14.83h24.84
		c-1.38,6.44-3.76,12.19-7.13,17.25c-3.37,5.06-7.44,9.31-12.19,12.76c-4.75,3.45-10.08,6.06-15.99,7.82
		c-5.9,1.76-12.07,2.64-18.51,2.64c-9.35,0-17.63-1.53-24.84-4.6c-7.21-3.07-13.3-7.36-18.28-12.88
		c-4.98-5.52-8.74-12.11-11.27-19.78c-2.53-7.67-3.8-16.1-3.8-25.3c0-8.43,1.34-16.45,4.03-24.04c2.68-7.59,6.52-14.26,11.5-20.01
		c4.98-5.75,11-10.31,18.05-13.68c7.05-3.37,15.03-5.06,23.92-5.06c9.35,0,17.75,1.96,25.19,5.87c7.44,3.91,13.61,9.08,18.52,15.52
		c4.91,6.44,8.47,13.84,10.69,22.2c2.22,8.36,2.8,16.98,1.73,25.88H1293.95z M1355.13,433.31c-0.31-4.14-1.19-8.12-2.65-11.96
		c-1.46-3.83-3.45-7.17-5.98-10c-2.53-2.84-5.6-5.14-9.2-6.9c-3.6-1.76-7.63-2.64-12.08-2.64c-4.6,0-8.78,0.8-12.53,2.42
		c-3.76,1.61-6.98,3.83-9.66,6.67c-2.68,2.84-4.83,6.17-6.44,10c-1.61,3.83-2.49,7.97-2.65,12.42H1355.13z"/>
	<path d="M1500.95,476.78c0,3.22,0.42,5.52,1.26,6.9c0.84,1.38,2.49,2.07,4.95,2.07c0.77,0,1.69,0,2.76,0c1.07,0,2.3-0.15,3.68-0.46
		v18.17c-0.92,0.3-2.11,0.65-3.56,1.03c-1.46,0.38-2.95,0.73-4.48,1.04c-1.53,0.31-3.07,0.54-4.6,0.69
		c-1.53,0.15-2.84,0.23-3.91,0.23c-5.37,0-9.81-1.07-13.34-3.22c-3.53-2.15-5.83-5.9-6.9-11.27c-5.21,5.06-11.62,8.74-19.21,11.04
		c-7.59,2.3-14.91,3.45-21.97,3.45c-5.37,0-10.5-0.73-15.41-2.18c-4.91-1.46-9.24-3.6-13-6.44c-3.76-2.83-6.75-6.44-8.97-10.81
		c-2.22-4.37-3.33-9.47-3.33-15.29c0-7.36,1.34-13.34,4.02-17.94c2.68-4.6,6.21-8.2,10.58-10.81c4.37-2.61,9.28-4.49,14.72-5.63
		c5.44-1.15,10.92-2.03,16.44-2.65c4.75-0.92,9.28-1.57,13.57-1.96c4.29-0.38,8.09-1.03,11.38-1.96c3.3-0.92,5.9-2.34,7.82-4.25
		c1.92-1.92,2.88-4.79,2.88-8.62c0-3.37-0.8-6.13-2.41-8.28c-1.61-2.15-3.6-3.79-5.98-4.95c-2.38-1.15-5.02-1.92-7.93-2.3
		c-2.91-0.38-5.67-0.58-8.28-0.58c-7.36,0-13.42,1.53-18.17,4.6c-4.75,3.07-7.44,7.82-8.05,14.26h-26.22
		c0.46-7.67,2.3-14.03,5.52-19.09c3.22-5.06,7.32-9.12,12.31-12.19c4.98-3.07,10.62-5.21,16.9-6.44c6.29-1.23,12.73-1.84,19.32-1.84
		c5.83,0,11.58,0.61,17.25,1.84c5.67,1.23,10.77,3.22,15.3,5.98c4.52,2.76,8.17,6.33,10.92,10.69c2.76,4.37,4.14,9.7,4.14,15.99
		V476.78z M1474.73,443.66c-3.99,2.61-8.89,4.18-14.72,4.71c-5.83,0.54-11.65,1.34-17.48,2.42c-2.76,0.46-5.44,1.11-8.05,1.96
		c-2.61,0.84-4.91,2-6.9,3.45c-1.99,1.46-3.56,3.38-4.71,5.75c-1.15,2.38-1.73,5.25-1.73,8.62c0,2.92,0.84,5.37,2.53,7.36
		c1.69,1.99,3.72,3.56,6.1,4.71c2.38,1.15,4.98,1.96,7.82,2.42c2.84,0.46,5.41,0.69,7.71,0.69c2.91,0,6.06-0.38,9.43-1.15
		c3.37-0.77,6.55-2.07,9.54-3.91c2.99-1.84,5.48-4.18,7.48-7.01c1.99-2.84,2.99-6.33,2.99-10.46V443.66z"/>
	<path d="M1529.24,384.32h24.61v23h0.46c0.77-3.22,2.26-6.36,4.48-9.43c2.22-3.07,4.91-5.87,8.05-8.39
		c3.14-2.53,6.63-4.56,10.47-6.1c3.83-1.53,7.74-2.3,11.73-2.3c3.06,0,5.18,0.08,6.32,0.23c1.15,0.15,2.34,0.31,3.57,0.46v25.3
		c-1.84-0.31-3.72-0.58-5.63-0.8c-1.92-0.23-3.8-0.35-5.64-0.35c-4.45,0-8.62,0.88-12.53,2.65c-3.91,1.76-7.32,4.37-10.23,7.82
		c-2.91,3.45-5.21,7.71-6.9,12.77c-1.69,5.06-2.53,10.89-2.53,17.48v56.58h-26.22V384.32z"/>
	<path d="M1614.34,384.32h24.84v17.48l0.46,0.46c3.99-6.59,9.2-11.77,15.64-15.53c6.44-3.75,13.57-5.63,21.39-5.63
		c13.03,0,23.31,3.38,30.82,10.12c7.51,6.75,11.27,16.87,11.27,30.36v81.65h-26.22v-74.75c-0.31-9.35-2.3-16.14-5.98-20.35
		c-3.68-4.22-9.43-6.33-17.25-6.33c-4.45,0-8.43,0.8-11.96,2.42c-3.53,1.61-6.52,3.83-8.97,6.67c-2.45,2.84-4.37,6.17-5.75,10
		c-1.38,3.83-2.07,7.9-2.07,12.19v70.15h-26.22V384.32z"/>
	<path d="M1747.05,339.01h26.22v24.84h-26.22V339.01z M1747.05,384.32h26.22v118.91h-26.22V384.32z"/>
	<path d="M1801.78,384.32h24.84v17.48l0.46,0.46c3.99-6.59,9.2-11.77,15.64-15.53c6.44-3.75,13.57-5.63,21.39-5.63
		c13.03,0,23.31,3.38,30.82,10.12c7.51,6.75,11.27,16.87,11.27,30.36v81.65h-26.22v-74.75c-0.31-9.35-2.3-16.14-5.98-20.35
		c-3.68-4.22-9.43-6.33-17.25-6.33c-4.45,0-8.43,0.8-11.96,2.42c-3.53,1.61-6.52,3.83-8.97,6.67c-2.45,2.84-4.37,6.17-5.75,10
		c-1.38,3.83-2.07,7.9-2.07,12.19v70.15h-26.22V384.32z"/>
	<path d="M2043.74,497.02c0,17.94-5.02,31.32-15.07,40.13c-10.04,8.82-24.5,13.23-43.35,13.23c-5.98,0-12-0.62-18.06-1.84
		c-6.06-1.23-11.58-3.3-16.56-6.21c-4.98-2.91-9.16-6.75-12.54-11.5c-3.37-4.75-5.37-10.58-5.98-17.48h26.22
		c0.77,3.68,2.07,6.67,3.91,8.97s4.02,4.1,6.55,5.41c2.53,1.3,5.33,2.15,8.39,2.53c3.07,0.38,6.29,0.57,9.66,0.57
		c10.58,0,18.32-2.61,23.23-7.82c4.91-5.21,7.36-12.73,7.36-22.54V482.3h-0.46c-3.68,6.59-8.7,11.73-15.06,15.41
		c-6.36,3.68-13.23,5.52-20.58,5.52c-9.51,0-17.59-1.65-24.27-4.95c-6.67-3.29-12.19-7.82-16.56-13.57s-7.55-12.38-9.54-19.9
		c-1.99-7.51-2.99-15.56-2.99-24.15c0-7.97,1.23-15.56,3.68-22.77c2.45-7.21,5.98-13.53,10.58-18.97c4.6-5.44,10.24-9.78,16.91-13
		s14.22-4.83,22.66-4.83c7.51,0,14.41,1.57,20.7,4.71c6.29,3.14,11.12,8.09,14.49,14.83h0.46v-16.33h26.22V497.02z M1985.55,482.53
		c5.83,0,10.77-1.19,14.83-3.56c4.06-2.38,7.36-5.52,9.89-9.43c2.53-3.91,4.37-8.36,5.52-13.34c1.15-4.98,1.72-10,1.72-15.06
		c0-5.06-0.61-9.97-1.84-14.72c-1.23-4.75-3.1-8.97-5.63-12.65s-5.83-6.59-9.89-8.74c-4.06-2.15-8.93-3.22-14.61-3.22
		c-5.83,0-10.73,1.23-14.72,3.68c-3.99,2.46-7.21,5.63-9.66,9.54c-2.45,3.91-4.22,8.36-5.29,13.34c-1.07,4.99-1.61,9.93-1.61,14.83
		c0,4.91,0.61,9.7,1.84,14.38c1.23,4.68,3.1,8.86,5.63,12.54s5.75,6.67,9.66,8.97C1975.32,481.38,1980.03,482.53,1985.55,482.53z"/>
	<path d="M2137.81,339.01h28.75v139.38h83.49v24.84h-112.24V339.01z"/>
	<path d="M2365.74,476.78c0,3.22,0.42,5.52,1.27,6.9c0.84,1.38,2.49,2.07,4.94,2.07c0.77,0,1.69,0,2.76,0c1.07,0,2.3-0.15,3.68-0.46
		v18.17c-0.92,0.3-2.11,0.65-3.57,1.03c-1.46,0.38-2.95,0.73-4.48,1.04c-1.54,0.31-3.07,0.54-4.6,0.69
		c-1.53,0.15-2.84,0.23-3.91,0.23c-5.37,0-9.82-1.07-13.34-3.22c-3.53-2.15-5.83-5.9-6.9-11.27c-5.21,5.06-11.62,8.74-19.21,11.04
		c-7.59,2.3-14.91,3.45-21.96,3.45c-5.37,0-10.5-0.73-15.41-2.18c-4.91-1.46-9.24-3.6-13-6.44c-3.76-2.83-6.75-6.44-8.97-10.81
		c-2.22-4.37-3.33-9.47-3.33-15.29c0-7.36,1.34-13.34,4.02-17.94c2.68-4.6,6.21-8.2,10.58-10.81c4.37-2.61,9.28-4.49,14.72-5.63
		c5.44-1.15,10.93-2.03,16.45-2.65c4.75-0.92,9.28-1.57,13.57-1.96c4.29-0.38,8.09-1.03,11.38-1.96c3.3-0.92,5.9-2.34,7.82-4.25
		c1.92-1.92,2.88-4.79,2.88-8.62c0-3.37-0.81-6.13-2.42-8.28c-1.61-2.15-3.6-3.79-5.98-4.95c-2.38-1.15-5.02-1.92-7.93-2.3
		c-2.92-0.38-5.67-0.58-8.28-0.58c-7.36,0-13.42,1.53-18.17,4.6c-4.75,3.07-7.44,7.82-8.05,14.26h-26.22
		c0.46-7.67,2.3-14.03,5.52-19.09c3.22-5.06,7.32-9.12,12.3-12.19c4.98-3.07,10.62-5.21,16.91-6.44c6.29-1.23,12.73-1.84,19.32-1.84
		c5.83,0,11.58,0.61,17.25,1.84c5.67,1.23,10.77,3.22,15.29,5.98c4.52,2.76,8.17,6.33,10.92,10.69c2.76,4.37,4.14,9.7,4.14,15.99
		V476.78z M2339.52,443.66c-3.99,2.61-8.89,4.18-14.72,4.71c-5.83,0.54-11.65,1.34-17.48,2.42c-2.76,0.46-5.44,1.11-8.05,1.96
		c-2.61,0.84-4.91,2-6.9,3.45c-1.99,1.46-3.56,3.38-4.71,5.75c-1.15,2.38-1.72,5.25-1.72,8.62c0,2.92,0.84,5.37,2.53,7.36
		c1.69,1.99,3.72,3.56,6.09,4.71c2.38,1.15,4.98,1.96,7.82,2.42c2.83,0.46,5.4,0.69,7.71,0.69c2.91,0,6.05-0.38,9.43-1.15
		c3.37-0.77,6.55-2.07,9.54-3.91s5.48-4.18,7.47-7.01c1.99-2.84,2.99-6.33,2.99-10.46V443.66z"/>
	<path d="M2394.72,339.01h26.22v60.72h0.46c1.84-2.91,4.06-5.52,6.67-7.82c2.61-2.3,5.48-4.26,8.62-5.87
		c3.14-1.61,6.44-2.84,9.89-3.68c3.45-0.84,6.86-1.26,10.23-1.26c9.35,0,17.52,1.65,24.5,4.95c6.98,3.3,12.76,7.82,17.37,13.57
		c4.6,5.75,8.05,12.46,10.35,20.12c2.3,7.67,3.45,15.87,3.45,24.61c0,7.97-1.04,15.72-3.11,23.23c-2.07,7.51-5.21,14.15-9.43,19.9
		c-4.22,5.75-9.54,10.35-15.98,13.8c-6.44,3.45-14.03,5.17-22.77,5.17c-3.99,0-8.01-0.27-12.08-0.8c-4.06-0.54-7.93-1.57-11.62-3.11
		c-3.68-1.53-7.01-3.53-10-5.98c-2.99-2.45-5.48-5.67-7.47-9.66h-0.46v16.33h-24.84V339.01z M2486.26,443.89
		c0-5.37-0.69-10.58-2.07-15.64c-1.38-5.06-3.45-9.54-6.21-13.46s-6.21-7.05-10.35-9.43c-4.14-2.38-8.89-3.56-14.26-3.56
		c-11.04,0-19.36,3.83-24.96,11.5c-5.6,7.67-8.39,17.86-8.39,30.59c0,5.98,0.73,11.54,2.18,16.67c1.46,5.14,3.64,9.54,6.56,13.22
		c2.91,3.68,6.4,6.59,10.46,8.74c4.06,2.15,8.78,3.22,14.14,3.22c5.98,0,11.04-1.22,15.18-3.68c4.14-2.45,7.55-5.63,10.23-9.54
		c2.68-3.91,4.6-8.36,5.75-13.34C2485.68,454.21,2486.26,449.11,2486.26,443.89z"/>
</g>
</svg>
